<mxfile host="app.diagrams.net" modified="2021-08-11T04:35:10.955Z" agent="5.0 (Windows NT 10.0; Win64; x64) AppleWebKit/537.36 (KHTML, like Gecko) Chrome/92.0.4515.107 Safari/537.36 Edg/92.0.902.55" etag="6ELpJ8NTGp0xyy8Sb4B0" version="14.9.6" type="github">
  <diagram name="Page-1" id="6133507b-19e7-1e82-6fc7-422aa6c4b21f">
    <mxGraphModel dx="1483" dy="794" grid="1" gridSize="10" guides="1" tooltips="1" connect="1" arrows="1" fold="1" page="1" pageScale="1" pageWidth="1100" pageHeight="850" background="none" math="0" shadow="0">
      <root>
        <mxCell id="0" />
        <mxCell id="1" parent="0" />
        <mxCell id="235556782a83e6d0-1" value="Center_line" style="swimlane;html=1;fontStyle=1;align=center;verticalAlign=top;childLayout=stackLayout;horizontal=1;startSize=26;horizontalStack=0;resizeParent=1;resizeLast=0;collapsible=1;marginBottom=0;swimlaneFillColor=#ffffff;rounded=0;shadow=0;comic=0;labelBackgroundColor=none;strokeWidth=1;fillColor=none;fontFamily=Verdana;fontSize=12" parent="1" vertex="1">
          <mxGeometry x="141" y="340" width="160" height="86" as="geometry" />
        </mxCell>
        <mxCell id="235556782a83e6d0-2" value="+ PCZ" style="text;html=1;strokeColor=none;fillColor=none;align=left;verticalAlign=top;spacingLeft=4;spacingRight=4;whiteSpace=wrap;overflow=hidden;rotatable=0;points=[[0,0.5],[1,0.5]];portConstraint=eastwest;" parent="235556782a83e6d0-1" vertex="1">
          <mxGeometry y="26" width="160" height="26" as="geometry" />
        </mxCell>
        <mxCell id="235556782a83e6d0-6" value="" style="line;html=1;strokeWidth=1;fillColor=none;align=left;verticalAlign=middle;spacingTop=-1;spacingLeft=3;spacingRight=3;rotatable=0;labelPosition=right;points=[];portConstraint=eastwest;" parent="235556782a83e6d0-1" vertex="1">
          <mxGeometry y="52" width="160" height="8" as="geometry" />
        </mxCell>
        <mxCell id="235556782a83e6d0-7" value="- LINE" style="text;html=1;strokeColor=none;fillColor=none;align=left;verticalAlign=top;spacingLeft=4;spacingRight=4;whiteSpace=wrap;overflow=hidden;rotatable=0;points=[[0,0.5],[1,0.5]];portConstraint=eastwest;" parent="235556782a83e6d0-1" vertex="1">
          <mxGeometry y="60" width="160" height="26" as="geometry" />
        </mxCell>
        <mxCell id="78961159f06e98e8-17" value="SocketCAN" style="swimlane;html=1;fontStyle=1;align=center;verticalAlign=top;childLayout=stackLayout;horizontal=1;startSize=26;horizontalStack=0;resizeParent=1;resizeLast=0;collapsible=1;marginBottom=0;swimlaneFillColor=#ffffff;rounded=0;shadow=0;comic=0;labelBackgroundColor=none;strokeWidth=1;fillColor=none;fontFamily=Verdana;fontSize=12;swimlaneLine=1;" parent="1" vertex="1">
          <mxGeometry x="143.5" y="150" width="165" height="90" as="geometry" />
        </mxCell>
        <mxCell id="78961159f06e98e8-23" value="+ System CAN" style="text;html=1;strokeColor=none;fillColor=none;align=left;verticalAlign=top;spacingLeft=4;spacingRight=4;whiteSpace=wrap;overflow=hidden;rotatable=0;points=[[0,0.5],[1,0.5]];portConstraint=eastwest;" parent="78961159f06e98e8-17" vertex="1">
          <mxGeometry y="26" width="165" height="26" as="geometry" />
        </mxCell>
        <mxCell id="78961159f06e98e8-19" value="" style="line;html=1;strokeWidth=1;fillColor=none;align=left;verticalAlign=middle;spacingTop=-1;spacingLeft=3;spacingRight=3;rotatable=0;labelPosition=right;points=[];portConstraint=eastwest;" parent="78961159f06e98e8-17" vertex="1">
          <mxGeometry y="52" width="165" height="8" as="geometry" />
        </mxCell>
        <mxCell id="ujX-c3RJfpw3Tra9EMkt-2" value="- Socket_CAN_IP" style="text;html=1;strokeColor=none;fillColor=none;align=left;verticalAlign=top;spacingLeft=4;spacingRight=4;whiteSpace=wrap;overflow=hidden;rotatable=0;points=[[0,0.5],[1,0.5]];portConstraint=eastwest;" parent="78961159f06e98e8-17" vertex="1">
          <mxGeometry y="60" width="165" height="26" as="geometry" />
        </mxCell>
        <mxCell id="78961159f06e98e8-43" value="DBC_Packet" style="swimlane;html=1;fontStyle=1;align=center;verticalAlign=top;childLayout=stackLayout;horizontal=1;startSize=26;horizontalStack=0;resizeParent=1;resizeLast=0;collapsible=1;marginBottom=0;swimlaneFillColor=#ffffff;rounded=0;shadow=0;comic=0;labelBackgroundColor=none;strokeWidth=1;fillColor=none;fontFamily=Verdana;fontSize=12" parent="1" vertex="1">
          <mxGeometry x="678.5" y="160" width="160" height="94" as="geometry" />
        </mxCell>
        <mxCell id="78961159f06e98e8-45" value="+ ROS_CAN message" style="text;html=1;strokeColor=none;fillColor=none;align=left;verticalAlign=top;spacingLeft=4;spacingRight=4;whiteSpace=wrap;overflow=hidden;rotatable=0;points=[[0,0.5],[1,0.5]];portConstraint=eastwest;" parent="78961159f06e98e8-43" vertex="1">
          <mxGeometry y="26" width="160" height="26" as="geometry" />
        </mxCell>
        <mxCell id="78961159f06e98e8-51" value="" style="line;html=1;strokeWidth=1;fillColor=none;align=left;verticalAlign=middle;spacingTop=-1;spacingLeft=3;spacingRight=3;rotatable=0;labelPosition=right;points=[];portConstraint=eastwest;" parent="78961159f06e98e8-43" vertex="1">
          <mxGeometry y="52" width="160" height="8" as="geometry" />
        </mxCell>
        <mxCell id="ujX-c3RJfpw3Tra9EMkt-20" value="- DBC_Message" style="text;html=1;strokeColor=none;fillColor=none;align=left;verticalAlign=top;spacingLeft=4;spacingRight=4;whiteSpace=wrap;overflow=hidden;rotatable=0;points=[[0,0.5],[1,0.5]];portConstraint=eastwest;" parent="78961159f06e98e8-43" vertex="1">
          <mxGeometry y="60" width="160" height="30" as="geometry" />
        </mxCell>
        <mxCell id="78961159f06e98e8-69" value="USS" style="swimlane;html=1;fontStyle=1;align=center;verticalAlign=top;childLayout=stackLayout;horizontal=1;startSize=26;horizontalStack=0;resizeParent=1;resizeLast=0;collapsible=1;marginBottom=0;swimlaneFillColor=#ffffff;rounded=0;shadow=0;comic=0;labelBackgroundColor=none;strokeWidth=1;fillColor=none;fontFamily=Verdana;fontSize=12" parent="1" vertex="1">
          <mxGeometry x="368.5" y="568" width="160" height="92" as="geometry" />
        </mxCell>
        <mxCell id="78961159f06e98e8-70" value="+ USS_CAN message" style="text;html=1;strokeColor=none;fillColor=none;align=left;verticalAlign=top;spacingLeft=4;spacingRight=4;whiteSpace=wrap;overflow=hidden;rotatable=0;points=[[0,0.5],[1,0.5]];portConstraint=eastwest;" parent="78961159f06e98e8-69" vertex="1">
          <mxGeometry y="26" width="160" height="26" as="geometry" />
        </mxCell>
        <mxCell id="78961159f06e98e8-77" value="" style="line;html=1;strokeWidth=1;fillColor=none;align=left;verticalAlign=middle;spacingTop=-1;spacingLeft=3;spacingRight=3;rotatable=0;labelPosition=right;points=[];portConstraint=eastwest;" parent="78961159f06e98e8-69" vertex="1">
          <mxGeometry y="52" width="160" height="8" as="geometry" />
        </mxCell>
        <mxCell id="ujX-c3RJfpw3Tra9EMkt-40" value="- SELF_USS" style="text;html=1;strokeColor=none;fillColor=none;align=left;verticalAlign=top;spacingLeft=4;spacingRight=4;whiteSpace=wrap;overflow=hidden;rotatable=0;points=[[0,0.5],[1,0.5]];portConstraint=eastwest;" parent="78961159f06e98e8-69" vertex="1">
          <mxGeometry y="60" width="160" height="26" as="geometry" />
        </mxCell>
        <mxCell id="78961159f06e98e8-82" value="Radar" style="swimlane;html=1;fontStyle=1;align=center;verticalAlign=top;childLayout=stackLayout;horizontal=1;startSize=26;horizontalStack=0;resizeParent=1;resizeLast=0;collapsible=1;marginBottom=0;swimlaneFillColor=#ffffff;rounded=0;shadow=0;comic=0;labelBackgroundColor=none;strokeWidth=1;fillColor=none;fontFamily=Verdana;fontSize=12" parent="1" vertex="1">
          <mxGeometry x="678.5" y="490" width="160" height="90" as="geometry" />
        </mxCell>
        <mxCell id="78961159f06e98e8-84" value="+ DBC_Message" style="text;html=1;strokeColor=none;fillColor=none;align=left;verticalAlign=top;spacingLeft=4;spacingRight=4;whiteSpace=wrap;overflow=hidden;rotatable=0;points=[[0,0.5],[1,0.5]];portConstraint=eastwest;" parent="78961159f06e98e8-82" vertex="1">
          <mxGeometry y="26" width="160" height="26" as="geometry" />
        </mxCell>
        <mxCell id="78961159f06e98e8-90" value="" style="line;html=1;strokeWidth=1;fillColor=none;align=left;verticalAlign=middle;spacingTop=-1;spacingLeft=3;spacingRight=3;rotatable=0;labelPosition=right;points=[];portConstraint=eastwest;" parent="78961159f06e98e8-82" vertex="1">
          <mxGeometry y="52" width="160" height="8" as="geometry" />
        </mxCell>
        <mxCell id="b94bc138ca980ef-4" value="- Radar Objects" style="text;html=1;strokeColor=none;fillColor=none;align=left;verticalAlign=top;spacingLeft=4;spacingRight=4;whiteSpace=wrap;overflow=hidden;rotatable=0;points=[[0,0.5],[1,0.5]];portConstraint=eastwest;" parent="78961159f06e98e8-82" vertex="1">
          <mxGeometry y="60" width="160" height="26" as="geometry" />
        </mxCell>
        <mxCell id="ujX-c3RJfpw3Tra9EMkt-55" value="" style="edgeStyle=orthogonalEdgeStyle;rounded=0;orthogonalLoop=1;jettySize=auto;html=1;" parent="1" source="78961159f06e98e8-95" target="ujX-c3RJfpw3Tra9EMkt-52" edge="1">
          <mxGeometry relative="1" as="geometry">
            <Array as="points">
              <mxPoint x="221.5" y="580" />
              <mxPoint x="221.5" y="580" />
            </Array>
          </mxGeometry>
        </mxCell>
        <mxCell id="78961159f06e98e8-95" value="Planing" style="swimlane;html=1;fontStyle=1;align=center;verticalAlign=top;childLayout=stackLayout;horizontal=1;startSize=26;horizontalStack=0;resizeParent=1;resizeLast=0;collapsible=1;marginBottom=0;swimlaneFillColor=#ffffff;rounded=0;shadow=0;comic=0;labelBackgroundColor=none;strokeWidth=1;fillColor=none;fontFamily=Verdana;fontSize=12" parent="1" vertex="1">
          <mxGeometry x="141" y="450.5" width="160" height="89.5" as="geometry" />
        </mxCell>
        <mxCell id="78961159f06e98e8-96" value="+ Path Planing" style="text;html=1;strokeColor=none;fillColor=none;align=left;verticalAlign=top;spacingLeft=4;spacingRight=4;whiteSpace=wrap;overflow=hidden;rotatable=0;points=[[0,0.5],[1,0.5]];portConstraint=eastwest;" parent="78961159f06e98e8-95" vertex="1">
          <mxGeometry y="26" width="160" height="26" as="geometry" />
        </mxCell>
        <mxCell id="78961159f06e98e8-102" value="+ Location" style="text;html=1;strokeColor=none;fillColor=none;align=left;verticalAlign=top;spacingLeft=4;spacingRight=4;whiteSpace=wrap;overflow=hidden;rotatable=0;points=[[0,0.5],[1,0.5]];portConstraint=eastwest;" parent="78961159f06e98e8-95" vertex="1">
          <mxGeometry y="52" width="160" height="26" as="geometry" />
        </mxCell>
        <mxCell id="78961159f06e98e8-108" value="Lidar" style="swimlane;html=1;fontStyle=1;align=center;verticalAlign=top;childLayout=stackLayout;horizontal=1;startSize=26;horizontalStack=0;resizeParent=1;resizeLast=0;collapsible=1;marginBottom=0;swimlaneFillColor=#ffffff;rounded=0;shadow=0;comic=0;labelBackgroundColor=none;strokeWidth=1;fillColor=none;fontFamily=Verdana;fontSize=12" parent="1" vertex="1">
          <mxGeometry x="638.5" y="611.17" width="160" height="94" as="geometry" />
        </mxCell>
        <mxCell id="78961159f06e98e8-109" value="+ Hes_ROS" style="text;html=1;strokeColor=none;fillColor=none;align=left;verticalAlign=top;spacingLeft=4;spacingRight=4;whiteSpace=wrap;overflow=hidden;rotatable=0;points=[[0,0.5],[1,0.5]];portConstraint=eastwest;" parent="78961159f06e98e8-108" vertex="1">
          <mxGeometry y="26" width="160" height="26" as="geometry" />
        </mxCell>
        <mxCell id="78961159f06e98e8-116" value="" style="line;html=1;strokeWidth=1;fillColor=none;align=left;verticalAlign=middle;spacingTop=-1;spacingLeft=3;spacingRight=3;rotatable=0;labelPosition=right;points=[];portConstraint=eastwest;" parent="78961159f06e98e8-108" vertex="1">
          <mxGeometry y="52" width="160" height="8" as="geometry" />
        </mxCell>
        <mxCell id="78961159f06e98e8-117" value="- POINT_CLOUD_2" style="text;html=1;strokeColor=none;fillColor=none;align=left;verticalAlign=top;spacingLeft=4;spacingRight=4;whiteSpace=wrap;overflow=hidden;rotatable=0;points=[[0,0.5],[1,0.5]];portConstraint=eastwest;" parent="78961159f06e98e8-108" vertex="1">
          <mxGeometry y="60" width="160" height="30" as="geometry" />
        </mxCell>
        <mxCell id="ujX-c3RJfpw3Tra9EMkt-77" style="edgeStyle=orthogonalEdgeStyle;rounded=0;orthogonalLoop=1;jettySize=auto;html=1;entryX=0.059;entryY=0.5;entryDx=0;entryDy=0;entryPerimeter=0;" parent="1" source="b94bc138ca980ef-1" target="ujX-c3RJfpw3Tra9EMkt-75" edge="1">
          <mxGeometry relative="1" as="geometry" />
        </mxCell>
        <mxCell id="b94bc138ca980ef-1" value="&lt;p style=&quot;margin: 0px ; margin-top: 4px ; text-align: center&quot;&gt;&lt;i&gt;&amp;lt;&amp;lt;Mining Innovation Project&amp;gt;&amp;gt;&lt;/i&gt;&lt;br&gt;&lt;b&gt;Mining_ADWS&lt;/b&gt;&lt;/p&gt;&lt;hr size=&quot;1&quot;&gt;&lt;p style=&quot;margin: 0px ; margin-left: 4px&quot;&gt;+ ROS_CAN&amp;nbsp;&lt;/p&gt;&lt;p style=&quot;margin: 0px ; margin-left: 4px&quot;&gt;+ DBC_Message&lt;br&gt;+ Hes_ROS&lt;/p&gt;&lt;hr size=&quot;1&quot;&gt;&lt;p style=&quot;margin: 0px ; margin-left: 4px&quot;&gt;- POINT_CLOUD_2&lt;/p&gt;&lt;p style=&quot;margin: 0px ; margin-left: 4px&quot;&gt;- SELF_USS&lt;/p&gt;&lt;p style=&quot;margin: 0px ; margin-left: 4px&quot;&gt;- LINE&lt;/p&gt;" style="verticalAlign=top;align=left;overflow=fill;fontSize=12;fontFamily=Helvetica;html=1;rounded=0;shadow=0;comic=0;labelBackgroundColor=none;strokeWidth=1" parent="1" vertex="1">
          <mxGeometry x="448.5" y="300" width="190" height="150" as="geometry" />
        </mxCell>
        <mxCell id="ujX-c3RJfpw3Tra9EMkt-15" style="edgeStyle=orthogonalEdgeStyle;rounded=0;orthogonalLoop=1;jettySize=auto;html=1;entryX=1;entryY=0.5;entryDx=0;entryDy=0;exitX=0.5;exitY=1;exitDx=0;exitDy=0;" parent="1" source="ujX-c3RJfpw3Tra9EMkt-73" target="78961159f06e98e8-23" edge="1">
          <mxGeometry relative="1" as="geometry">
            <mxPoint x="428.5" y="150" as="sourcePoint" />
            <Array as="points">
              <mxPoint x="433.5" y="189" />
            </Array>
          </mxGeometry>
        </mxCell>
        <mxCell id="ujX-c3RJfpw3Tra9EMkt-24" value="&amp;nbsp;CAN BUS" style="edgeLabel;html=1;align=center;verticalAlign=middle;resizable=0;points=[];" parent="ujX-c3RJfpw3Tra9EMkt-15" vertex="1" connectable="0">
          <mxGeometry x="-0.1453" relative="1" as="geometry">
            <mxPoint x="-40" y="11" as="offset" />
          </mxGeometry>
        </mxCell>
        <mxCell id="ujX-c3RJfpw3Tra9EMkt-19" value="&amp;nbsp; ROS_CAN (64 bits)&amp;nbsp;&amp;nbsp;" style="edgeStyle=orthogonalEdgeStyle;rounded=0;orthogonalLoop=1;jettySize=auto;html=1;" parent="1" source="ujX-c3RJfpw3Tra9EMkt-2" target="78961159f06e98e8-45" edge="1">
          <mxGeometry x="0.5431" y="9" relative="1" as="geometry">
            <mxPoint x="773.5" y="215" as="targetPoint" />
            <mxPoint as="offset" />
          </mxGeometry>
        </mxCell>
        <mxCell id="ujX-c3RJfpw3Tra9EMkt-22" style="edgeStyle=orthogonalEdgeStyle;rounded=0;orthogonalLoop=1;jettySize=auto;html=1;" parent="1" source="ujX-c3RJfpw3Tra9EMkt-20" target="78961159f06e98e8-84" edge="1">
          <mxGeometry relative="1" as="geometry">
            <Array as="points">
              <mxPoint x="858.5" y="235" />
              <mxPoint x="858.5" y="529" />
            </Array>
          </mxGeometry>
        </mxCell>
        <mxCell id="ujX-c3RJfpw3Tra9EMkt-23" value="&amp;nbsp; DBC&amp;nbsp;&amp;nbsp;" style="edgeLabel;html=1;align=center;verticalAlign=middle;resizable=0;points=[];" parent="ujX-c3RJfpw3Tra9EMkt-22" vertex="1" connectable="0">
          <mxGeometry x="0.083" y="1" relative="1" as="geometry">
            <mxPoint x="24" y="-21" as="offset" />
          </mxGeometry>
        </mxCell>
        <mxCell id="ujX-c3RJfpw3Tra9EMkt-31" style="edgeStyle=orthogonalEdgeStyle;rounded=0;orthogonalLoop=1;jettySize=auto;html=1;" parent="1" source="b94bc138ca980ef-4" edge="1">
          <mxGeometry relative="1" as="geometry">
            <mxPoint x="619.5" y="450" as="targetPoint" />
            <Array as="points">
              <mxPoint x="619.5" y="563" />
            </Array>
          </mxGeometry>
        </mxCell>
        <mxCell id="ujX-c3RJfpw3Tra9EMkt-64" value="&amp;nbsp;Object &lt;br&gt;Distance" style="edgeLabel;html=1;align=center;verticalAlign=middle;resizable=0;points=[];" parent="ujX-c3RJfpw3Tra9EMkt-31" vertex="1" connectable="0">
          <mxGeometry x="0.4207" y="-1" relative="1" as="geometry">
            <mxPoint x="-2" y="10" as="offset" />
          </mxGeometry>
        </mxCell>
        <mxCell id="ujX-c3RJfpw3Tra9EMkt-33" style="edgeStyle=orthogonalEdgeStyle;rounded=0;orthogonalLoop=1;jettySize=auto;html=1;entryX=0.703;entryY=1.006;entryDx=0;entryDy=0;entryPerimeter=0;" parent="1" source="78961159f06e98e8-117" target="b94bc138ca980ef-1" edge="1">
          <mxGeometry relative="1" as="geometry">
            <Array as="points">
              <mxPoint x="582.5" y="675" />
            </Array>
          </mxGeometry>
        </mxCell>
        <mxCell id="ujX-c3RJfpw3Tra9EMkt-34" value="&amp;nbsp;ROS / Lidar&amp;nbsp;" style="edgeLabel;html=1;align=center;verticalAlign=middle;resizable=0;points=[];" parent="ujX-c3RJfpw3Tra9EMkt-33" vertex="1" connectable="0">
          <mxGeometry x="-0.4976" y="1" relative="1" as="geometry">
            <mxPoint y="-10" as="offset" />
          </mxGeometry>
        </mxCell>
        <mxCell id="ujX-c3RJfpw3Tra9EMkt-44" style="edgeStyle=orthogonalEdgeStyle;rounded=0;orthogonalLoop=1;jettySize=auto;html=1;entryX=0.5;entryY=1;entryDx=0;entryDy=0;" parent="1" source="ujX-c3RJfpw3Tra9EMkt-40" target="b94bc138ca980ef-1" edge="1">
          <mxGeometry relative="1" as="geometry">
            <Array as="points">
              <mxPoint x="448.5" y="640" />
              <mxPoint x="543.5" y="640" />
            </Array>
          </mxGeometry>
        </mxCell>
        <mxCell id="ujX-c3RJfpw3Tra9EMkt-45" value="Self_USS" style="edgeLabel;html=1;align=center;verticalAlign=middle;resizable=0;points=[];" parent="ujX-c3RJfpw3Tra9EMkt-44" vertex="1" connectable="0">
          <mxGeometry x="-0.6949" y="-2" relative="1" as="geometry">
            <mxPoint x="-17" y="-99" as="offset" />
          </mxGeometry>
        </mxCell>
        <mxCell id="ujX-c3RJfpw3Tra9EMkt-51" value="" style="rounded=1;whiteSpace=wrap;html=1;" parent="1" vertex="1">
          <mxGeometry x="146" y="590" width="150" height="70" as="geometry" />
        </mxCell>
        <mxCell id="ujX-c3RJfpw3Tra9EMkt-52" value="" style="shape=image;verticalLabelPosition=bottom;labelBackgroundColor=#ffffff;verticalAlign=top;aspect=fixed;imageAspect=0;image=https://www.carsim.com/company/logos/mechanical_simulation/Trucksim_logo_w_mech_sim_icon.png;" parent="1" vertex="1">
          <mxGeometry x="153.5" y="610.59" width="135" height="28.82" as="geometry" />
        </mxCell>
        <mxCell id="ujX-c3RJfpw3Tra9EMkt-57" value="" style="rounded=1;whiteSpace=wrap;html=1;fillColor=none;dashed=1;strokeWidth=3;" parent="1" vertex="1">
          <mxGeometry x="121" y="310" width="200" height="390" as="geometry" />
        </mxCell>
        <mxCell id="ujX-c3RJfpw3Tra9EMkt-58" value="&lt;span style=&quot;font-size: 20px&quot;&gt;&lt;b&gt;PERCEPTION&lt;/b&gt;&lt;/span&gt;" style="text;html=1;strokeColor=none;fillColor=none;align=center;verticalAlign=middle;whiteSpace=wrap;rounded=0;dashed=1;" parent="1" vertex="1">
          <mxGeometry x="153.5" y="700" width="130" height="40" as="geometry" />
        </mxCell>
        <mxCell id="ujX-c3RJfpw3Tra9EMkt-59" value="" style="rounded=1;whiteSpace=wrap;html=1;fillColor=none;dashed=1;strokeWidth=3;" parent="1" vertex="1">
          <mxGeometry x="121" y="70" width="757.5" height="200" as="geometry" />
        </mxCell>
        <mxCell id="ujX-c3RJfpw3Tra9EMkt-61" value="&lt;span style=&quot;font-size: 20px&quot;&gt;&lt;b&gt;BSW&lt;/b&gt;&lt;/span&gt;" style="text;html=1;strokeColor=none;fillColor=none;align=center;verticalAlign=middle;whiteSpace=wrap;rounded=0;dashed=1;" parent="1" vertex="1">
          <mxGeometry x="693.5" y="270" width="130" height="40" as="geometry" />
        </mxCell>
        <mxCell id="ujX-c3RJfpw3Tra9EMkt-62" value="" style="rounded=1;whiteSpace=wrap;html=1;fillColor=none;dashed=1;strokeWidth=3;" parent="1" vertex="1">
          <mxGeometry x="348.5" y="470" width="630" height="250" as="geometry" />
        </mxCell>
        <mxCell id="ujX-c3RJfpw3Tra9EMkt-63" value="&lt;b&gt;&lt;font style=&quot;font-size: 20px&quot;&gt;SENSORS&lt;/font&gt;&lt;/b&gt;" style="text;html=1;strokeColor=none;fillColor=none;align=center;verticalAlign=middle;whiteSpace=wrap;rounded=0;dashed=1;" parent="1" vertex="1">
          <mxGeometry x="593.5" y="715" width="130" height="40" as="geometry" />
        </mxCell>
        <mxCell id="ujX-c3RJfpw3Tra9EMkt-71" style="edgeStyle=orthogonalEdgeStyle;rounded=0;orthogonalLoop=1;jettySize=auto;html=1;" parent="1" source="ujX-c3RJfpw3Tra9EMkt-66" target="78961159f06e98e8-109" edge="1">
          <mxGeometry relative="1" as="geometry" />
        </mxCell>
        <mxCell id="ujX-c3RJfpw3Tra9EMkt-66" value="" style="rounded=1;whiteSpace=wrap;html=1;strokeWidth=1;fillColor=none;" parent="1" vertex="1">
          <mxGeometry x="848.5" y="615.4699999999999" width="110" height="69.41" as="geometry" />
        </mxCell>
        <mxCell id="ujX-c3RJfpw3Tra9EMkt-67" value="" style="shape=image;verticalLabelPosition=bottom;labelBackgroundColor=#ffffff;verticalAlign=top;aspect=fixed;imageAspect=0;image=data:image/png,iVBORw0KGgoAAAANSUhEUgAAAZAAAAD6CAIAAAAAxYYTAAAAAXNSR0IArs4c6QAAIABJREFUeF7svWdsHFmW73nOvRGRht6JXqQkypDyVSWpnFRVXa7d9HRP9xuMefMwmF3M7gN2sV8X2C/9cbHAwwILLHYG783M6+mualdd7bt8yXvvDZ1E712SmRnm3rMfwmTQJpNkskRl/JBKRUbeiAxGnPjfc8899wYSEQQEBARsBFi6AgEBAQFPC4FgfdUEHu5GwTBAiHSFArKLkq5AQLagpE6xmJyO8cpKjEbTFQ/4KqF43LpzD/OirK6WFRWlKx6QLQLB+mogyzKvXtM//RyEiPzd3yo7t6fbIuArgwxDtLbH/q//giXFkR98L/TuO5huk4AsEQjWV4Fpxt//mfHbP7CubiLSIxH4679Utm5Jt1nAV4McGk788lf80SOyLH1qSnT1hL/357y8LN12AWtPIFjrCgkhOjrMCxfNX3wgr98kQABI/ukjKC/j/+k/YiScbgcB640cHjY//lR8+SXMzMhEAi9ftUbGkolE6J23lJ07AANna13hP/zhD9OVCVgbSErz7r3kBx8m3vsZPu5CzoWqgqLQ0BCYJisr43W1qARVyFMECaH/5vfmez+FJ09MQKmqTEo2Pm7de0AIWFbCSkqQ83S7CVgzAsFaP6ybtxM/+knyp79giaQEkG7lzBmn0XFrZFTduxuLi4Mb4GmByLh4yfj5L82Lly1FAUQEIESJyHXduH9fjIzwqkpeXR34WetGkNawTpgXLyf+7UfW519yIUhKfy6D5Iz0JNx/MPOvP5J9/YvuImB9Eb19xi8/lLduI0PySRIBWAAsnqCz5xP/9F/18xcpSHdYLwIPK+tQImGcOae/91Pz1BkaHUFNo9kVsi1eqOusvx/sjvOCggV3FbBuWO0dyV/8yvr0MxoekYoyx4ciRECEmTgNDcuRMVAUVrkJw0EIMusEEZPsQoZhXLiU/Jd/E+cvQlKHUFjOK4MAxFCS1EZGjQ8+hJLiyN/8DQSNjK8O0T+gf/qF8dNfwOSERJQ4t8mHABKRqSokkubHn9LEOJpG6FvfAE1beI8Ba0QgWNnFuHAp+aOfyNNniTMKqYtltdvBEV1RoP0xnjrHdzVrzx9cpGxA1jHOXzQ++FCdmNABJGML1h0IQADEkGkKnTlrqgqWlWqvvgIsCLNkkUCwsoj+xfHE+z+3Ll5ERAKgdF6TBOAMxcVLuqKAEOr+vRgKLb1JwJpj3r5jHD9pdXQSAGG6a2Z3noRC+q3b5j//i0wkQ2+8hpoGREEkPhsEgpUVSNfNq9eS7/1UXLgEsWm57JaC5JyNjYnzFxLhEK/cxBs2p9siYO0QwuroNP79J+LsObBMoarpNnAgRaHpGbpy1dR1mJnR3nwjGL6TJQLBWnsokTAvXo6/97519hxOz2AotPzxzRIAGafxCfHFl8b+faFvvsvKy9NtFLA2iN6+5K9+bX38GQ0NQX7+8selEwAoCiaT4vRpIUxiLPytb+Cy9S5g+QSCtfaYV67F//VH5omTyLnMsE2HAJIhEfCp6cSP/h00NfIfvg9BZlb2oamYeflq8sPfYSJB0ejy1cpDcg55+fLSVYjksYKC0BuvBfGsNSc4oWuM2dae+MMfzfMXOOcrjmIQggDCjsfGHz9KHD+RrnjAGmBcvqL/9Ofq2BgISSu9cBKAKwrdvKW/975x8SIZerotAjIj8LDWDLIs6+Ej/ecfiJOnMT4jQ+GM62gfBECWJa7dsCoq5J49rKoy3RYBK8e4cUv//R+tG7fQsmjhXsHlIjlnsZh15XpC+QnmF6h796TbIiADgsTRNUN0dCZ+/L71p09gYAC0DOJWi8I5TE/DTFyGNF5bywry020QkDlEYnhY/9GPrc++oIkJoa62CicAQAbJJHX3QCTCKjexYF6HtWO1lyfARoyMGKdOG7/8gBmmVBfNt8oIAsBQSAwMWD/6MauqDL3xWtD3tObI8Qn9k8/EydM0MCjDoVU5VwDgpNQBcKZYpv7Tn0MoFC0vZ2Wl6bYLWBZBDGttMM6eT3zwIRNCIq6JWtlIRJBSHRsz3vuZefFyuuIBmUG6bt68lfzgQzE0TJoG6ZOulgsBmIhKLCY+/Tzx69+nKx6wXALBWjVE8V/9Wn//59DaJglWHK9dDIkoDBNu3rI+/sS8dStd8YDlQ8bZc4l/+e/4qI2SSbnWPXr2GGnZ3i4/+8w4eRpMM90WAekJmoSrQ0qro9P49e/E+YsIJLMzm5VA5DNx48w5WV7Gqmt4RZCZtQZYnY/Nz76UJ06hwte8mrERnIOui7v3ku//HKNR5cC+IDlrlWTlBssdxOCQ/tEn0N4BliXCmaVcZYQZ0qinV378GZaVR3/wPVYWxHFXh2UZJ06Lq9c4kbHWvpUHApCmiVhMfP4lFBdFImF1z+50GwUsRSBYK0f09Sd+89vkT97H0TEILXfwzcqwA/DU26e/975SVam98RorLEy3UcDCUCKZ+OWHyV9+KFvbQcuuy0MAwDkCmb/7Pa+qZDU1vLQk3UYBi5KtuiUXMC9eNj74NRseIcuS2WlT+CFEFBbvHzB+/oG4cy9d8YCFIcM0L18xfvYLetQKQmSpMeiHAIiITcWsEyeN4yfTFQ9YisDDWiHGjZvmF1/Cg4cQDq/bCAxinIQ0Ll+B3/yOohFt/74VJ9OvIVJKIrLnW5FCCimICBEZ45w7ZwYR2XqdpaWQ0rx2PfmLX4l798mysu1eeRAAqKq4/9D86BOlaZuypxl5cOuthOCsZY6UYmpK//0frfMXGOfr2fdjdzyBruu/+wOonDc28MLC9ZFLIpJSCiGklFJK0zASySQA6Lqu67oUAhBJkmmauq5LKRjnmqaFVA0QCUhRlFAopGkaZ1zTNC2kISJDZJxzzudNkJctRH+/cfyE8dFHjCFpa5Mut0wsxnBmRly5qv/kffa//me+OZiHYyUEgpUxlNSNjz8VZ87JwWFaryraD+ecJiaotV20tbH9+3FdBMs0zdHR0bHR0cmJyfHx8dGRkdHRUQk0Pj4xNTlF5EykSgD+YcO2EkkpNU0rKCwsKipSFKW4uKhiU0VJUXE4Eqmo2FSxaVMoyxFAD9E/ILu6cCYOkcj6O6cUCsmJCfj0c3N7E/75n7HKTem2CJhLIFgZIoT14GHylx/KJ13E2HpW0QTAiDiRRVJ947XQD/5C3b49e4/YIYDpWGxsdHR0ZHR4ZGRoeGhsZHR6ejqZSJqmaZiGYegEYOiGmS7DiIgYYzMzMyMjI5wxVVU1TVNVrihaYVFRaWlpYVFhdXVVVWVVWXl5QTbns1d27tC+9U0Ri4lzF9AwQFEWm1A0G9jWIqanzT/+CbdvCwWClTmBYGWG6Og0fvM7uHuXEklSsiUW8yEAJiUjgsJC9ZWXwt/7c+3llzALowsTicTY2NjIyMjw8PDoyOjk+Pjk5NT4xMRUbDIRT1iWJaVkjDHGvHYcX55oWpZlmiYiEpEUQpI9K7oaCoXCkXB5WVlpaVlZWVlZeXlxSUl5WVlZRVleNC/dXjODFRRorx2FvIhRXW2dPQ99/VzKNU8ZXQwEIMYsALhzz/jiOK+tVXZsT7dRwCwCwcoEKc0rV/Xf/0GxhGRMruFQjnQgEWeMlZbBcwci//M/qvv3rmHch4gsy7Isa2J8vKu7u62t7XHn497e3tjUFBEpXGHckSdVVSnziaJsENHeiReAt8XLjoKNjY6Z5j3OeVFhYXlFxeaGzTt37WpqasqLRlVNUxRlrWL2rKAg/MYbatP2mYIC6+NPsX+AXN9nHbB7DBVdt748oVdWKg0NoKnr3zjduASzNWSAefe+/tEn5pWrhLgO3eEeCKBaFmyqYF9/O+9/+h+VHdvX8AHRRDQ9Pd3X1/fg/oPTp06dPXP20cNHk5OTwrIYY7ZSrKE4Lob9W5xzIeX09HR3d3d7W3t/b28imZREmqaF1/QhWqyokNfXC123HrUppknrOwW7VDgNjyABNjbwysrsteufPXDFFWZuIaWYmIz/3/+P/uvfYiwm18vC7JYgF5JKirS/+avwX/5Aqa+DtRveMTIycvPmzfv37o0Mjxi6MTMzE0/EhRDroFBLI6VUFCUaiUSi0VAoVFZe3tTUtHv37vrN9WvlaoGUVleX8eWJ5I9+gj290jSFoqzbn42GgWVl7GuvF/0f/3sw/8zyCTysZUGWpX/2mfnhb2V7B6xpVb80zLKYorCGzep3/yz0ve+q25vWZLpkyzIH+gdu375z+crl69eutba2Dg0NxWIx0zLB7dr7anFai4YxOTk5NjY2Ojpqv8dnZhhj4VBIWb2PiciKi3lNDWmaHBiAsXGUktZKDdOBjEEyidPTbHsTr6kOxhguk0CwloUcGor/t3+jBw9RSLFe/UpIxBhjWxqV734n8rd/pWzZkm6L9JimOT4+3vqo9crlKxcuXLx969b42DgiqqrqBaqeHhCRc25rUywW6+npGRjon5yYNC1TVVW7CbnKY8b8PKWpSSYSNDKKE1Pr19xAZFJyIaQQvLGBVwYzyi6LQLDSI6emjAuXrF/9Ro6O0lo4OMtEEQJrqpRvf7Pgf/tf1mTqPl3Xe3t6j395/PPPPrtz+048PmMnHKTb7qnADtXH44nHjx/fu3dvaHg4Eo4UFRVpy36E2mJgOKS2tBCR1d7Gp2fWL56FCELK7h62uY5v2xo86X45BIKVHuv+g+SPfoJt7dI01yHWbudbqVJQfr723e9E/uav1mS+yv7+/pMnTh7/8sv2trapqSnppnpuLIiIiKSQsanYkydP4vF4cUlJfv5q0zswpLGqSgyF9CtXuWEALPB4+rUHEQCYnoRIBDfXK3W16TYICAQrHWJkRP/oU/3Xv0VdlwDZrnud7FAEKijQfvAXoR/8hbpzR7qNloKIRkZGHty/f/7c+evXr/f09CQSiQ3kWM3HVhLDMCYnJ8fHxsbGxhLxRDgcjkajqxEZVliAZWUEQMMjEIshrP1cjAuCRGJiAgsL1YP7UVGybWAbnUCw0qCfOJX81YfyURupyjpYMAJwKVlRIb74YvQf/0FtaU63xVIIy+rp6bl08dKZ06fv3bs7MTFp5yis5sZ+SrD/isnJqd7u3v6+PiFEOBIpKChYjRCz4mJlW5OMxeTAIExMrEn/RnoYg9ExVFTWuJnV1KzPQKuNSyBYi0NEiIkfv2d99KmiqeswgQwAcCJQOO7Znfef/1HZtXOVnUddXV1nTp8+eeLk+Pi4lLRevQXrB+ecMRZPxB8/fpxMJouKi8pWM7UhIiss4A31YmhI3HvA2VpOz78ECgAqXObnqQcP4KpDcs82q+4bfoaR0rx6ndo7wDBEJJKu9BrAAKRhKl97LfL3f6cc3I+r+FEhxJXLVy6cP9/a2moYhpQbMmK1HOyolmma165eTSYS4VCouqZmNUkPvLFRe/st0dVtnToLmroOk2FIzuXAIJ69IN78Gu5uCTRrCVZ+XZ95ZDyunzojn3QzxkW6wqvEDl0ppiG3b9feeUt77dhqctkHB4euX7t688bNx4+fxOMzq7l7NwqmaXJFCYXDRcXFq2kV2qgvHZEzM3J8AuyeliyfQMkYGgbr7DR+93tWVhrMPLME2b0SGxcyDNHabl28RMPDsOqHa6YFpUTOWVWV+u1vaK8dXbFaCSG6u7uvXrl64cL5sdExKeVqRv9tIFRN27lr56HDhwpXP3M0EcvPD33tdRofN977GXR0ElFWAwJkD66cnk5+/Kly5DCvrw9C74uxwhvjmUcODRsnTmJrm4jHaXWBpOWAUrLSEnj7zdAPvreaCra7q/vEiRPnz52zLAsAGGO5oFac8+qa6iNHjhw4cCBd2WVgZxsUFkb++i+t/gGYiVNPj8ymDSCAZIyEFF295tXrSvMu3tCQbqMcZbXO87MJgXXnnv7Br+XMDKzU2VkmBKBIyTUVmraF/+5vWE1Nui0WhgA6Ozs///yz69eu2WqVIzDGVFU7evTY7pY1fiANaqHI97+Le3dbhrke9wliWOHU8Vj09acrmrusx4XYcIihIevhQ9HTQ5aVbeccAWQygVu3hv7s20pT08oCrqZp3r937+M/fXTnzt1YLJYLXhUAIKJlWZqmHXzuYEtLS1HxGgwGmAVj6s6d2ltv8oMHyDQh+2eVEK0HD6y799bhtzYo2XUfNiiiu1s8fGS3prJrOESciMrKlKMvh7/+zsrUyrKs+/fvnzpx8vbt24ZhrD7kvFGwLKuwsLClpeXYa8c2ZW32ztDrx2h8IjE+xkbHZDafskMAAhF6esXVa+bhQ+rePdmuLDciuWLcGWG1dciHrRrnWbUY2w9ijKkvHtHefIOt9HnObW1tp06eunjxohAid9QKAKSUTU1Nb7711o4dO7LXE8o2VYS+/rb6yss8EkGR3e5igcgMQ96+axw/CbnUrl8+OWTfy4JI9PQal64Yj1rNlU7ZTm5ykG8NkbPOxc5j4NyqqtS+8231hReW2OFiEFFvT8+pk6fu3rmjaVqOtARtELGsrGzHzp3btm1LV3a1YHGRduyolRe1B2ASOK63d6HTeuJz7GExEEBqIXNoyLx+nSYn0xXPRQLBmg2ReeUKtrZx01y4MiWQRHMFyPuYWvBZs/0F+F4IBCQtS4TD2jtvKfv2rqAxKKXs7+v/7LPPHj54kEwm0xV/pkDEUCj06tFXDx48wLM/sz4rLFRfPKR9/R2srqGkPuvaO9d0XoXkXnYCkm4xudC35Gqd/Z/kDJM6dj7Rj5+QExNLHFVuEgjWLCiRMM5dkN3dqKrzq1AisM3LXV7o5atHvZUOvvYlk4SMQUV5+K23eHUVZM7I8MjZM2duXL8xMTGRUy1BIYSqqi27W144dKiqujpd8bUAkVdVhb77Hb5vD6gKX8RXWtgellWG/B8RAMfGzZOnaXR0wR/KZXLI0NNjmKLzsXX7rjU2JhU+W6qIiAiJEOxHHAP6Xjbovi/4csqgk+ZDUikv1547qLTsWsFESKZp3n9w//Tp0zPTM3PviWcdRVGqq6uPHjtWVbUSoV8hBOqB/dqLh5XN9cxOI511cREAF7/oS5qEU/M5wkVEhCh1XTxoFYPDCx5LLhMIVgoxNpb8/Es+MsKIhKc+4C54yzB7eRYpe6SFX0AAHMAChBeei/7D37PClTyG7+rVq+fPnovH45Lk4gfzDKLren19/Vtvv93c3BwKhdIVXzsQEEB7+SXl5RdNSyxycWdd+tnLS+3Zw656BENTWMbQkNneKSeCSNYsAsFKQVMxcfMWxONkD9P3NMsxKX/N6DNTQiJ7mXmqJMFuM/qLgXRdf7SEsmWL9tKLyu7mFSSmdnV1Xb92vb294xke0rwgUsri4pLde/bs279fzWbq+WKoLc3Ki0egrIwhAyIJQICSgIgkkXOJU427RRVt0RoPARAIkYjYzIzs7JQjIwuXzFUCwXIgSaKnx+zoEAtNK+oPRsyKPlBqQdo65fvofEu+YgAEYAmpHH5Be+kIZM7oyOjZM2daHz1KJpPPwLRWy4SAGGMF+QVHXjzywqEX8vPX+AGry0fds1t74zUZDkkhgZyQpfRdXOlbkLNWomMV6X4CAIgIhWXdum11Pk5XNrcIBMtBjoyYrW1ieERYlvvolJRX7y549ud6TD5L9fUUOfu0P3vfAwAQIWOitEQ5ckjdtXOhA1mK8bHx69evX7p4aXx8PBTKuGNx40KSVFVr2t509NjRxsbGdMWziFJTHfnzb1NlJSoKUqqPL0XKJsj3Aml7ZG7F5r7me14IgIBIiNbde9bde2SZCx1IjhIIloMcG5Nd3TyRdAXHkSrPpAhAOs069ESJFn85IJD3AgAiRVXDhw+rmT+j3LTM1tbWzz//PJFI5MioZj8FBfmvvPrqpk3ZymhfJpiXp7a0hPftDRUVMiEkALkis4QxeJfKp2N2MMGu9vxm5uiXQMbGx+nOPev2vaUOKMcIBMtB9PSJR22MAOxQFIGnCHaEwsumcdamzJSclgEC4axa1fO4nOgVECFYJcXhd95UajN+4kB/b/+9u/fGRsdyamwzAOi6XllZ+dprx3bs3BGNRtMVzzqsuCj8rXdFw2ZTWAwcl9rX6nftBAEAfMaQYq6cOUbi2BgAOD4X46Knx7h7d6GjyFEyjvg+q5gPW/U79zgy1/h8cmX/DwAAiN4a1x7tYgj+YvOiqkgAirBYQR7ubNIOv8BKSyBD2tra79+/L4S5aMh2fSEiRJTSTqQF6d5uftcPZ8MYA8rs8IloU2Xl8y+88NIrrxQUrKRHdc3BUCj08kszZ85DaxtMTwvm76MBdGwA0WcdAABABN5YL0x9gzC3FCLa8qco1tg4dj4G3YBcigAsQSBYAABWd491/77o75clto6k1Apg1g3m2RyljJEREvpM0GevTnm09yQkq6oOHX2V12Y2hwwRDQ0Otj56ODAwoGQ/sXtZIChcQURVVVVV5ZwjY6qqcs78t5+U0jRNKaUQwrIs0zSlkFJKSct6jBYiqqqyb9++Iy8eKSnJWOKzBSLm5YX27TUvX7Vu3iKN2ybi2AahU3WRbTjoGhARes1HcLwoAADbehy78Uu+BISZuBwclhOTrKJsHSZrfvoJBAsAQD97njofq5GwmXKYXI/JsaqU22A3//zpT7ZH5lidV56czW2XggEZqsJ37cz75jcww8exmKZ59vTZjvb2ZdzjWYcxxhhTNTUSiShcqaysrKyqzMvLy88vKC8vzy/IR4YMGRBIKROJxPDIcGw6NjUxOToyOjQ0mEzqyWRS13W/U7YgRKAqyqZNFQcO7t+8ikkNs4TSUK80bjav3SC/J2UvOQJlr/KuGXpalhInTFkWuiW9MyIRMJGUo+NybAxLilYwfuvZIxAsAAA5NExTMWApHSG0PXgnHgHkKBgBECCC7bM7laqrTeRZrmex3kcUktdUac07lQwH4iSTyUcPH926c3tkdJR/RXUsIgohhBCKqlRsqti8efPWbdsaGxsi4UgoHFZVlTFmP1Oec26XBwICklI2NDYIIYRlmZZlGEYykejt7Wt9+LCzs3NoaMg0Tcb5/KFFRMQYKyktfefdd7duzfrw5hWgNe9Unz84c+Ycm5mRUkrXp7Z9JUeLfHpk14EItmbZqfKOXDPbTtCt4lz7kYjcMHBs1HzSxepqA8GCQLAAgBIJOTwsZ2aIMdtNsqXI1iYAIrKNMFUBSqeY4/Wj20Pk1aaOsXo/AYCWpVRUKLV1kCGxqakb168PDw2bpqkoyrr5WHaIioiEEFLK0tLShoaGuvq6urq6yqqq8vLyoqJlTZg3Px+9uqZm8+b6gYGB/r7+zs7OJ0+6JibGEZFxzlwfUghRWVn5yquv7N23bw2mac8CLC9f3d2i7t1tXboiLUtyjj7HHMBvEvb/iEjkeVJkyxcAgXQ3RK+qsytERJICJiZEayscen6ho8g5cl6whJBj49bwsEjEgaHrTzlmR27F5/lKNhLmFJz17cIg8MZGtbEhXblZkKS+3r67d+4YehIRJUlGLNXI8Jf0Ku61g0gqilpcUlxUWLR9x/Z9+/Y1NDauPvKdl5e3ZevWLVu3JhKJ1ketd+7cefL48ejoaCwWMw0DGZMkC4sKd+/Z/cqrryxTFr8S1IbN4ZeOTN2+K01DOrKz4MUBAEC329Au4L9SzDUm5hqS9yUxbsVidPVq6N23WVkp5Dy5LlhkWnJo2BoZtZJJpwYEIHDjprYhzY6n+5OVHdFKGR95wXj0/hExRKuwQH1uv9ayCzJhaGT4/sMHPb09CueASBIkSnC0afavOqylYikKLy8vO3jw4HPPP7+5oWHNR8NEIpF9+/ft2btncHDw4vkL169d6+vrAwAhaVdz86HDh5+iQPtCKOXloReet37zWzkzQ5YlmE+xKCVJbnCKkFIFPGcK0C3rq/TQHWxhqYo1E4ez5yOPHimNDUGrMBAsw+rpUcbGhWFZmuYm0ZDrzDvLElwfxva2EO2G4lxHy4cEO44DXEoW0pSDB0LNu1iG43V7e3oe3L+PjAlJDJ22J6IT/XAaq25ADRzlQt+tAnaWkNMcseNt8zvcvTgcItl7kWQKa9eWXW+++bW9e/fm5edncUpPxioqKt5+5+2GLY1nz5y5ce1aXW3t8889t317xrm16wyqqlpfxyorRd+gNC27Hwa9ILp7hr36LiVSRIhgx7OQAO3eQ3SdNHDkywl3ATBJVlePGBtXqioht8mWFW4U5PSMfueunIpJn+tEANI1NyIixDlelZNw5H6E2d96kBer10IFLzyv1WWWLBqPxx89fNjZ0UFCOqLDkIGdIZ26GxzcFXZ3AfrW2R/JjfeSN2La2za1BoVlMc6ra2pa9uzev39/U1NTfn4+ZBlFUZT8/N27d0fC4fq6urLy8h07dmyISb54YWH08OHY4y5jYkJwDd1zjo5jlZKq1LsbaLCzreySCGB74uAInB2Vd/SLEYrePjkxAYFgpSvwjCNGRhOXrojpaaHwlGC5nYPkOjKEXiPRefde4FvjLdv/EwAjAsaoqCiyd49SmlkMoqO9vb2tfXJiMhwOI6JERGDg64sE8IVCfIIFPi2yvyJwbiCAVLfVfLETQmiaVltXe+Sll156+eWKigpYRzRN29Xc3NDYqChK9hy6tQU1Le/FI1NffGm0tQGk2mv+84+z3z0/C8m3klLyhgAIhIAMgQg4AgBYXd1ybAxyno1hFtlCStHfr9+8Ky0TFEZATpOQXMHyBtwToeuI0OyXuwbBVQZwhg06P8GiUV5drTU2sEyGlRBRW1vb0NAQY1xKaeeJo5ROx6VbCQPZBp7SHpIEgHZiAThia2uY1+4D50gJ7aL2fWP/1TV1tcdef/3Vo0fz8r6aGREikUi6Ik8RqCjhrVtkWZnJOXcsxPWS0DEL29VKaRPa8mRfFQIA5s4LaV8z5hQkCXY7ESWQ/uRJZCSYgDS3BUsmEmJykhgRc6UKAOxR9Yi2TrkzhDh3uaNTCNKnDj3VAAAgAElEQVTxSlKelz/yBd5KIi0S0epqeXHx3J9fHCKajsXa2tqHh4bdgBWAdH8TwL4B/Mmrbv1M7qdZeLU3uGXQWUqVNHR9/4EDb3/93cNHjigZprbmLMgYLyoM79yu3r5tDg5J1zF0xMjRLPLLFnNj7OhYD9qhA+b6WbZOuRIGACSIYComY7HFDiN3yGnBEuMTZm8vkLRlSAJINziVkir0zWwFmNIs56MNkRcCI08eiADQMkMlxYWHX+DRDBwH0zR7e3t7e3pisSlFUWwPy1/AlZtZa/wf5zCnvLcv+2CFEJzzph07Xn/jjeeee07dIM2xpwJEpmna5nqsqLD6B+wHl6Bbd3i6A8472sIEKZcqFauyrwWzPxIBAHOuOgkC0JNichIsE5Q17qvdWOS0acrJCauvD4gkkAQid341T78cFfOt9GmWHYl3NAp8DUZPGAiATDOvoCBv317MJCcgmUw+evRofGzM0HUg8BIn5ijOYh/nM1/OvE2kEKFQqH7z5ne+/u7zh17YWC2ypwStpgbLy5NSuhnECPY/8guWnZXsStKsFzIg6SZk+SWMOTUoMV0XI6NiZJSv50z2Tx85LVgUm6bhEUKQgIIceQJAaXtM6E6ABWCvsduJ9lwxPlfLbUvaH/3CgGAxLvLztYqKjMYPxmdmHty7Pz09LYQwDCPlEc2B3EwF/zoAgFlbpHTN6YxyVti3hDCt2rra17/2+te+9gbnOW0PKyZUXcUqNyURVEqFBbxL4HOmPMcKmDu1Ezo65VxI6a5BAO/Z44iAui4HBsXAYCBYOczoGD3ukoQC0XbmbafJdqkEASE6goUkASQ4jUdy1c2fCQFOTrxPPkyLl5eHGjbzvDzMpJN+fGLiwf37U5NTpmWJxZ82PEuoZuPdLbP106nAvXchRHFx0f4DB9742puIGRxhgJ9IbV20sQEL8oVpSs8CCLy4FYLtYdlKROh2dSASA2CECMgQkYjb25CjX8yRMIxIUoaGoa8fDuxf+mCebXJbsBJJHpsOESUJTNugCG15IgBBziTcdoNRAkj7IwG4aiVTioBey9EFSVJBVVWoqUnJZA7y0YmJa7dutXU9iScSRHNqax+LrFtExWjeBgSAUopXnnv+lTfeeJpHwDz9KPl5Wn29LCo2R0Yl2UlzgGjnwqA7KMfxqtCNZLkf7QWyZUu6HxEAERgBAigIChBLJGh6eskDefbJbcEyDGaZYYAkgkCwAIRPiWxvS9iC5T5UwlOlObEtACJ31KEHAWilJZGyEhCCTNP1z2ARYUFEgHB4qKOj9do1c2JCIYnI5hdFsOP583bgrlvC8wLfbzOGBfkFh5p37W5oBN0gKea0Ln37W/goFl8/nzXcFaTbJKP1MO8rrzC4387ZZO6uMBrV8vJC5RXG6LggAegNtwF0X/aOpCtSREAIUgLaaoXAAezcXju/BAE4ACAoBBFAlXOIxcTQMEiZyxNj5bRgiUSchFAA8hE5gA5gIFmQagYSOdEr6ZMqG4kgAYDAntKAnOFfhPZAeztaxLDIMsO9feLceWFavhzzhUFANRw2r18vuP/ggGESSbvtMEdGnDW+jHZwD8wO63qNEt9dlVp0bx5SOK8JhXdNxbS7d414YnF1CFgSAiU/qj5+XKZpiCDQGXTjyA4CA7vWkXZh28my+woBbMHyeVWUcsQUAA0gjLZgKXJiwurpkdPTrKDAl3mXW+SuYFEsRhOTUtcZgArIAaKuh+XLQE7lzKTuZlcb7IrWS7x01vo+kaopj9pY38BkKETp1MoGEcviiW9Pz5iWAAL0Z0CnCgEAAC0gWLMK+L/wuQXoLYNQuwYK/+3H4+Ff5NojDtcWRATDrJmeqZDkzKqGAK7T7V4N5ugTzK47UgaDnoTZqzggd+WMAEA3YGYGdB3y8wPByjlE/4DsH8BEklQVABCAA3DXhhw785lFyvK8dUvaDAIQIiZ1SOqusHji4UFz9kIAYaKwK5Tgd+p8hfybzd0FLLzJQu8EpokjY4t7VnN+B2Yp38J//3LWr3JXc8rAsnc1/9sFTyQtucOF1yOQiqi43znrZoHzF8n3iQDsqIB3OeYcGQkhDZNMc17LPYfIYcEaHMLhEcWyLF+GFM5bmP/V8nE2mWteS38EcOx2ke/sAu47+ZaXyez7gdIZ/4JH63+fzzLXr2ZXc1j+ruZ/619DsxeW3iS1ngDsZnim18Jfcr7tzToyxsA0cGqKpqapPLMsmWeJ3BUsORXj8ThD9D8za5n3R2a4A6efUpZ/ewUsRXbPoz1dMpucpPFxkJsBMshDfpbI3e4GdJLbAwI2AAiABGAJischhwOOuStYZJrSsmSgWAEbBcbAsuTkJCyeS/zMk8OCFZuSiTjlam9LwIaD7IijaWYncrExyFXBsiw5PCJj08Rz9QwEbDgQSQg5PUNBkzC3IJLxuBgakdPTlKu9LQEbD8YonjBb28nQ0xV9ZslJwQLHvc5l1zpgw4GcQzwu29tBN9KVfWbJVcEKCNhQEDhNQorFgl7CXCQItgdsIGbnxucuOS1YgWYFbCSIIOfDGDkpWEQoJQlBUubysKyAjQWBm9ogczcPK0eH5pAUJGWQ6B6wsSAikBIMM13BZ5ac9LAAgOyHpea6gx2wsSAgkBJM//jX3CJXBQsRcnZKoYANixN4fbpH02eVXG0Skp2IFcTdAzYSrlDlrtnmqIeFjAWjCAM2HIgADCGTZ1w+Y+SqYHEGnAMLRCtgw4AAiAwYCwQrx0AkZMAZIgsCWQEbAgKwJYsxntEzLp8xcvUvp6CDMGCjgQAIMrdzcXJVsAAgkKyAjQOCneme6zabo4KFABjoVcDGggg1jVdVgpKjnfuQs2kNwBgqKuMsqLICNgxCYn4eb96J4VC6os8sOelhIUJIw5JijERZIFgBGwSSAsMhXleLQS9hroGaxjZtYgUFuTyff8CGhOV0v3aOChYAYGEBi0YweGxOwEaAAIAIGMNQOJdzcXJXsEBVQVVyu7oK2DDYvYSoqFBUDDn8IILcFSxUFMYCvQrYMBCiVFVWWAA5nDiaq72EABiNCC1kScLZCVlrLGFECIRrvdf5eD9ARHZuof8n7WHe/nc/tEhhmL0w59sFdpW9pgoRACLC+iR5ExER2X/MskIGBISw5joyyyylhFCYSst4WSnmsIeVu4LFq6upqtLSVEbk3Wk0Owd+Offf0mUIUJK7y2XZ/opAsp8BhIiMc0SEeb9G897nfzv/4/wFWGxXdlpjNv5GtGcDYgQkJQHRsi7MakCUCCQJEREQcd4JmoOtVER2WVjodC2TObbn7Q2JSFMxP4rR6Jor4wYihwWrtobV1lAkgoZBAAJIEEhEASBdu/HMhVybcTZGZ73nOtlf4WwXg4RUiopCm8rVwkIpRWaWu2wQQAJZAJaUiqKGQiFF/QouK0kJQkA2OjEQuKpaUvb39Y0ODurJJEO/i+FdqyV+Oq3kpBBCVFRWVlRXM0VREO0Rp0tvwjTVmJhI9PRYU9Pk1H+2rfhnrnKOE+2axZ4/Eu2PdiazXQIBCAEQUAHiANyrTjkHTUVVzaIn+9TzFVj2UwJGo1hUxDQNDcMiiiMlEEwiC0GQo1n2lO8EIACIwHu4ElFK1ACQbKNz/zl2hyBMvbSxvu7b3yo9/IIwzSw9nQkBJIBOZEpSVTUSCYc0bf1nfyYpwbKy8TciY0o4Mj45cf4Xvzh/6vSonlAVNkcIEHHRJzR4Xo97TpZWr4Spv3Nw33e+//3yykouhQLIMM2MeWpx8ciVK/3v/XTyxi1LipTDjggASIQAnptmaxOzaz1ylhkAorOSASAgR1IINMAIUBSAE6GqYjQKWigQrByFhcPAmQUwDTRDYHrChCABJKEEICAJIIDIXglAhNL1wgiAwG6OuU6XBwEim9ENXVNDLc3ZfuBFGIAIkCFDZOwryYfN1kg31EKTo6Nn7t7504P7vYZu5echeC4MOI4uIswXabfmsO9w5zrZGgJ2iMq98zFVXiiKvrk+b3dLXnk5LvMvCoWM1tax2HQc0QK0jQGB7CV730iIjuvkKNQckWIADJADSADm1JcgbN8ZsEgIrbRU2bwZC/KXPpZnm5wWLFQUYjyJqBMJ124IEIkQAREYgbBjvQASHEskBAaeePlky1fx2Y4WY8wYHIr39BIiC4cXP5A1YE5U4xmrgh91Pfnki8/7R0ZMxjAUmu9MEeJicmk7YACOxBGk1G1uEx4IASOaVlheHi0pYZq20P4WJjk6aoyMIhGzm3xAAMDA8a2I3GUAhj6FQkSa9ZEBMCLbybI3kQBJgKiUWn6UlZamO5BnnJwWLMiLypISY2IC3BPhtgQdP4sAOPr9KZRObNldgyDJkbP5DRJkTI4MG52dxthYqLw8lzt3VkNXd9f5M6fv3rgRYlwLZRZvRph3VZYsgYjV1dW1VVV5mVQw+uBgsr2TjY8rYMcNnK5n24dCZ43j6tkuFdpq5Swjc9XNkS0iINcLA0AgE0gUFWJZydJH8syT24JVXgZbGrCz0+soRKeaBQJgRJ5XxZwgKUhAV7zIDl3ZMRuy6+85jg2CjCdhbMwYGdFKSgLByhQpZSKR+PzTT8+ePsO4whmDtALkgQjzUxNsb4fctuI8v4xzvmPXrsYtW+Y4X0uT6Okxurp4IsEjEXL9OSBHrRAcX84vTwi2b2ULGSEAB0Ai5jrLCOQJFiMyFS6rq9jmuiUOIxfIacHCSASLihCBIyKCBGB2q8CJqSMiIRCSp1aOwQGC/Zwwtz0IdhSLENxFAEQiQEVhM9Pxh615jY2QSRMjAACI6OTx4zeu35yOTYdDIQDwolGeoDgJU4j2SvujJ0LO8kINRrvwnDXhSPjgcwfr6jLTBX1wWI6NhRVGDFLVFiKzG56ADJ3ZjNDVI8/PsoXJFTJKrUdgXmsRgUJhVlGhlFcsehC5QU4LFisuVmqrJQIjQmQIJBHAFSa7IkYCbw4aCSABGTghFAJ0k4LIli375gCf0TLOYSo2c+9++VtfW+QoAhZmZnr60sVLx48f7+/v45xzzpeTzDnbzbULIi6yia8kSKJQKFRbX7erubmkJLOWl9HTI4dHNMZTHYQOtmNle+/kj7vPeTEA8LlUiE77EQEYEQcATWMlJZjhgT175LRg8ZJipa4WyOnNAbciRs9vIie+bps7A7A7DcH1qshZdMq7oL2aADhTIDajP3okJqeUwkIIWB6TU1NXLl/+7JNPOjs7pZQhO6JEToUAi2vWfMFK5crNLjlbWcCyREFh4d59+6qqqmD5SClmZoy2dtk/oDDOwI0duBqJrk9o/zdfqmCWtwUpnQJnNwyRE2I0qhQVz9XD3COnBYvl56sVm1QtLEXSFipyMv3IEynX20qZuwQgdPoHAVKbAMCs1oj9EwwxmZQ9PUZ3l1a5CTdOq9Df7FpPpJS6rp85ffrLL77o7urWNA0I/A09x2uy73ZEolTwcE4rb86f4G0I8wojopCysLDwwIED4UzC7SSEOTRstbfTyAgrKGTe5Xez8Z0+Q9sx9/TI1TS3zCx5QgDwgvSAjIgjY2VlrLgIcp6cFiwAUKoqo88fNK/dNKeniXOwbwFE5tg3IQF5ThYCACCB9PUI+rOP5sVJABHBMq3RsXhbe3jHDrW8fG6JpxIppRBC4V/BA1rGxsbOnD5z6dKl4aFhzZ6pzr0YAI4I2fczuF0l5AbRvQ92I5BcUbOX3Bx0cJ2gWUH3SDRSXlFeXV2tZjI9HllWorUVZ2ZUhROSW7sB+MQIgADQEyk2W60AnEQH27jQ+QoBwM6wRwKGoNbV8pJiyHlyXbBYaan2/PPwsE1MTCLnCOAF2QnAHhvmGCA5gjTLKuctkO9Lcs1OSerJS1fMA/s3hGCZpnHl8pXHnZ3V1dXPHz5ckL9OmYqGrt+7d+/cufOPOztHRkaklNzuVyXXXVkEfzWxZMG5ThaALRFgCVFVVd3S0lJWVsYz6cylZHLm7Hk5OqYo6pxRSegoJbgek7fefeGsNfaCWz+gs+x24ASCZZPrgoV5eWrzLqOoEPv7OJB06jS07cttGBKfd1f4P5LvHeZ9xRhThEheuaq//lp0796nPAwhhHj8+MmpU6fa29qqq6t109y9e/emTZu0bDZmiWh4aOjBgweXL166cfMmACCioiip/IN0oFuRpC228Eohamtrm1t2Z/pnWsMjyZu3aGqKc+7pjnck89/BXUZMrfeibK5gobPeViuSUqJSX89KyyDnyXnBUlVeVyvLSyGkKUJaiLZvhYSAwMkOZqE33ML+1o5HuPU+OetpjnClikgpxJMn+v37Zv9Lak01PMX09fVdPH+ho73DMKzu7t6P/vinnu7uI0debGxsCEciiJiRA7I0Uko7YjU+Pn7m9Okrl68M9g8omtMi81pwaZmvCJmBmJefX1dfX1dfm67oLGQspj9qpZERNE3O7NZcygd3LMHNwCLX23LbhriAYKVcSXTSHYgAkaJR3tDAc76LEALBQkXh5WW8rIxCEZqeQcWu08iN8zrxEyfXB4AQ7FQGXy3qqBjY4289k7NN17FOUBmXD1v1+w+eZsEaGx29evnqxYsXhRCMMwSIx+PXrl7raO3Y2bxr9949lZWbampq2BoFtiYnJjsfP75/996Dhw8mxscTiYSqab5b1lmanS2Fs6sEmJ9O5f8K5m6+wLdSyt17du/Zuyc/L7PGrxgdM27dVqdiIEkyxhfy8tB9eVpk/1lIgK5S+WLw6Cqd3ReNzLJ4YSE7/ILSsBn42pz2DU2uCxZwhsVFrKwMIxGMTdsBUV895zQO3XwrQAK3W9DBsdGUTLkhXs9yyf4dxeruMbu74Snm5o2b165enZmZQVcthBCmaepJPZ5MPHnyuKCwYMvWrc3NzQ0NDaHQCh82pet6V1fXwwcPBvoHhwYHR0ZHJicnpZSIiAtNATunOw9gzseFQfeqzFU0V/Hs9YyxvLy85557fuvWrQvvaHH0hw/jp06BriOivylnM+fIUmJDnio5poZO+VTqg2c9nEjLz+f79wVdhDY5L1gALBxm5eWYFyWSCKn2jm3YXj8S+mK/flsk7z8EcjuDvI8A5MReOReDg8bDR2JqihcULLOxs24kk8mHDx9cvny5p7dnjgowxghofHxsdHSYcd7T3d3T1b1169aKTRXhSETTNE3TwuFwKBRiLvaGdlejvfNkMmmapmmaMzMzw0NDT548aW9vn5qYMgyDgDjnS3ttcw5p6Y/z8Zwpp6RbXEoZjUZ37Ny5rWlbRtkMAGD19hnXrsuHjwg580IG9ne2DbjpC6nqD/zm4umU/e7YDQKgq1ZIBJxjWam2p4XlRSEgECwbZfNmq7TUetQGbpd2yvLQpy3k2Jm/1wrnNFHcleBW5OCYIdLUtLj7QD93IfL6Mczw9sgqpmV1d3d/9Mc/dXR0CCGUhR4sbOeaA8D42Pjw0MVr166VlZbmFRZEIpGC/PySkpKikiJV0RRFUVXVbhubpqkbOiKMjY6Pj4/NzMzouj48PDw1OSWEsPfGFIa+k5lV5usaIhYVFR0+fLi4OOMOOP3efevmHSVpWmEOvnBA6tJ7l9+3jADg5vB5hQFdLSPwnw1ORJomNpWrW7fgSv3ZZ4xAsAAAwi8esk6eMk+dYdEIAfjyqdwhYIi2twVeG9BJcZhVr/rSszzP39kEAMJcUfv69S9PhJ87+FQJ1tjo6MULF/r7ByxLcCVdTB1R1TREnJicmJicZIwBAkKqNedlgnhng6STrCaJpJSMsbQ+0TpARHl5eQ2Njc0tzdFoxv6L6O4RfX2oKJgSHPIMBAHs8AH4PSb7PRX/dC3DVwH6akJkABAJs5ISLCwElu665AaBYAEA8KpKpXknq6/FyZhg6DXs0E288oTIZ1joDihMVaLoKwluLeqtI8bM8XFx65bZ1qYVFjwlmhWbit24dv3qlavxmbgX91kasvHpMzknyhEqD0+Y5i985Qgptmzd8urRVwsKCtKVnQ1JMTKq37pt9vRxzrxw5axsYps53qMdsUpFN/2nahb2WUIpMS/KKzdhUVGOPz/VI+h3cOA7dyh7diNJJIlAziBVRAR0047dGjK1gP5RYGyhV+orBGJIlgl9/cnPj4vBoSUOZt0gops3b168cHF0ZFSSXI5aeSCghx264oxzxv14US2vZLq9rhNEVFFe0bJ7d3NLc6adnnImrn/yGdy9xxMJYsjAMRH3ouNsA0DPEti884upYqny9mlCILQsXlGhbG/Cr2KS/qeTzC7VM4xSX6e2NJPCmKNW7jhVBIZg33DMd8u5OoVI4Hs5Apd6pe5URATGGE8kk59+YbW2L30864Bpmu1tbZcvX+ro7FC1DMajbHQQQVGUXc3NO3fu4hk2tUhK0duX/NMn2N2rqGpKX9yL7WoWIiESMnLSXtDXIWjjSRhzTYshMgTPAokk31yv7d2z6NHkHoFgObDiYlZXI6NRZAyd4LrnapF/oiJnokh0ovG45MtuNXovCWhaQj55Yly/IQYG0xxTNiGi8fHxjz/+uKO9I1MXY0NDRJzz8vKylpbmmsxz4mhy0rh1W+94bCSSkjH0XVw3Hy/FHHnyFthskbK3R2dHzgSRjMiKRqFpm7JzBwS45JClLg0rLVG3blErK7jCfY8emKU3tnIhEENwVMxzopxmgVvXuh/9C56OcQLr6g3j1p2lDijLTE5Onjtz9knn43g87rmNOQBalhUKae+8+25zS0umqQwAIB53JX/5Gz4xiQCEzO9Hw2wDYK5V2KqEnlQBoONGgStS4DMzAAAkYkShI4fU/fuWOJgcJBCsFKyqUmlsREXFhZ9VlZItTC2AG+0CcDUJfELFZtmo3boEVLh5755x4aIcG1voh7JOIhG/fev25cuXJycnF0sEfyYRwiwvLzt0+MjBgwcznaUPAGh62rxyVVy7TobuzLHgjx44rpPPGFJWQYjgOeyYkqdZOuX+DACgVBRl7x5lS+MCx5HDBIKVghWX8EMvQEEBydnJ7Avh+iQpE2RAzI5boOuOuR8ZOt/aDhoxpJER69Jl/YvjNDOz5O+sPVLS7dt3zp0729ffb0mZO+4VAUWj0T179r755ltFmSdeAYBx+apx5ixLzABIQGAgnUiV41nZy7Mkyb+QcsIcPH/KtTcCIGBEjDEqLFSatvHyYMDzLALBSsHKSkPf+LqsqQaFMXv04OK14GxShRaqPOe+CIiHVHnvXvzff2w9fkKWtcSu1xYievL48fmz5+7cvsNZjnWVE+zYuevQ4UM1tTXpis6DiKank6fPGJevMFVxW3Opegt8OkW+j+5r/g5di3Ltyhv5zKRUFVWrr1e2N2GmKRfPOoFg+WCMl5UqTduU4mJFCABkc3oG5+nXAqLm9himLHIhJCKZJvYPGucv0OTkouXWmkQifvnSpe7ubnuK9HTFnxGIJOesoWHzyy+/tKu5OV3xhUl++rm8ch2npi1kRCm3CAlw9iNJvOj7LPPwQ07UwBMp9EOEIY03NbHMG63PPIFgzQLD4dBrx/jWLWRZXq2Ivj6dFJCyS3A8/VQ9Os/rXwBkDGam9c++MB8+WrTQmjIxMXHm9Jlbt25NTk6u4SwxTzmSiDNeXl5+9NixXc3NGU0o6mBa1v2Hyd/8Tjx65HhW4Dbu/KO0fHjtbK+687piGLj24+qUP/GfAUjG5KYK7c03WFmuPzZ1PoFgzYYx7dVX2IH9VFCwYK6eF4XwbMxnealvZ5Uk37LvBZyTackbt8zjJ632joV+bS2Jx+N379w9cfzEwMCAtY6N0K8czlhlVdULhw49/8ILhSt6DogcG9OPn5TXb9LUFKgqAix6rR1jcK472GF3T57cHc756IdZAqNRbNqmvXQ4aA/OJxCs2SBiUSE/eEDZsV2RckGT8pf1+Vtz18wCFngBIElSdcP6+FPz9Nklf2oNaH3Uevb06aHBQXtOlXTFnxEQWXFx0cHnDrz7jW+sTK0AQPT2midPKZZgqgaOALmvJS43pvwmb3FpiwIAtCy1slI9sA8LA7VagFwx3IxQ6mpx2xZDCMhylIcALIbySZd5/JR+7mK64itnYHDw1q1bjx8/Tlfw2cHW5aLiomOvvXbs2Gt50ahPQDLAvHM38bNfWDduWoZOWZ5CD4mEomBLs3b0KORMpZIRwUlZAFZfx7c3SWfS2+wiAUBIefuO+Yc/yaHhdMVXQiwWO3Pq1O3btxPJZHYF+KnBnoeruLjo6NGjLxw6VLFpU7otFkYmEvpnXxiffg6JhJQyq2cPARQp2eZ6/vxzSssuwODeXIDgpCwALy9X9u5W9rSgpsLCSaRrSkij0VFx9qz+yadycI3H60xOTl69cuXK5SuDAwM50hKUUkYikS1bt7z08ksvv/JyTU3mSQw2pmmcOGWdOA09faCqsCIHLTOkVHa3KHt3r8dvbUxywoJXgLp7T/gH38eiQpAiXdnVYgEIBNHfn/jXHxmXr1A8nm6L5WIYRntb26cffzI2NpY73YKMscYtjW+//dZ3v/u9TSv1rciyrK5u4xe/goePeDSa7VrL1idDVdnuXbyhPk3pHCYQrIVhRYXqoRdwyxYeiXCRXXNFAGKMLKH29lof/Ma6ej3dFsuls6Pj/NlzY+PjQoiVRXA2FlJKknL7ju3Hjh3bt/8AW4VGi96+6f/3/xO3b4lkwrIfWJlNUErOubJli7ZvH6+sTFc8dwnm2VkEVeUNm9WXXjT7B2R7B/CsT1BLAMIw5ZWrsLWRbW3ktZk9cmo+sVjszu07t27dMoWA7AfjvlrsJ4aVlJTs3r37yEsvbtu2bQWTiHqIgSHz93+C46fk5KRch0AmgLQsLCwMfeNd3rQtXdmcJhCsRcG8vNDXXhfXbliP2nCpDNC1gQAsxmBiwjxxCouKwt//Hq+pXk1XkZQymhctLS8fHR0Vz27ilT3xaSQaqa6qbm5pee6557Zu25puo3Tv/MQAACAASURBVKUg3TA+/0L/zW9xeIRUZR2C30xKiEZhx3btnTdZ5QrbsDlCIFiLw5iyby/ftRPPX0TTEKvQjmVCAKhp4sFDfSYOihr5wXfZKloHRUVFr7z6an5BwZeffzE6OppMJKWUlHXhXVcQgDGuquq2bdtePXr0wMGDoQwf3TwH0g3j1Gn9D38079xh0bz1OVnMMlnDZvbaq8r2JlxBIn4uwX/4wx+mK5PTkGHS0JBs7yBFofVoHADnHA3D7OpWmrbx+jpc6Bk2yyQUCpWXldVUV+u6MTExmUjEuaI8S0MIScr8/PyW3bu/8c1vNDc3r1atkknj/IXkP/2zvH4DmSLXJeqHAJDU+b694f/wfaW2djU+dS4QCFYaeHkZ6Lq4e5cbhv1ku3RbrBZCRCH49LQYGYG8PN7QgGmfZLM4mqYVFRXX1taWlJZIosmJCV3XAWAjpzggERmGkZ+Xt//AgTfffuvQoUP19fXaKtWKyLx+M/HP/03evE3xBK3inGeEIiRUVKhffzf8ve8g50FCw9KsvPbOEbCwQH3piHX7tvj0C5ieXgd7IgCJiELIC5cMRUHGtLfexFXMuR4Kh+rq60pKS8oryqurqzo6Ovr6+uMzM5zzjdV16D6sh8KRSGNjw/YdOw4ePLhz505cvfgSWVev6b/8QJy/AJZle9PrAAIQSfXwIfXoK6txpXOHwMNKD+bnY2GhceUqTE5i9p0se+8CkQtBPb1yfJxt24IFBRhalQehaVp1dXVTU1NeXl4iEU8kEoqiOBKwQVAUJRKJFBQUNDZsfuPNN48eO1ZTU7MGmiuE+eCB/tOfm7/+LRNCMrbQ/FVrDxIxxmRxUeRv/0p747VAsJZDIFjpQUXB/Hzzxi02MAiJhFiXee8QQDKGQkJs2ujpYeVlbFMFrq7VAwCKotTW1dXV1paUlihMiU3HDMMAd9h2uq2/GhAA7IGBRYUtLS2vv/H666+/vnXbtlAotAbHLITV1R3/p/9qffolm4lbq3fWlgfZuVfRKH/tVe3r7yp1q81iyRECUV8WWJAf+s63kl1PxOAgz8/PbiKpD8mQYjF25VpiYgpi06FvfwNXkQwJzkwDUFNbW1Rc3NKyu7+///btW/fu3RsaHAIixjhXODKW7VHfy4GIpJSWsICgprp67969O3ftrKmtLSktja50JPN8jPsP4v/9x3TmPE1MWOtREzkwImScKiqiP/gLdXtTuuIBDoFgLQtUFO3oK+LhIzE5Jbt7YL28d4nIpKTJSbp8Wc+PAkPtpRfZquf5VhSlqKioqKiotq5206aK2tq6x52dU1NTsdjU+PhELBbzHn2abk9rj5TSbqUW5OdXbNqUl59XVFTc2Niwa9eu6upqvnZnnpIJ4+IV/bd/sD7/AqemCGHd5rcnAJ7UWW0Ne+M19eBBXEWOa66xZpf/GYcxVlAQ/vM/E2PjiZ+8ryw07W02QABClJxzRHH+YjI2TeMToXfeYlUrz8/ywxhr3LKlccuWocGhoeGhvr6+ttbWx52PTdM0dN0wTbkOY79TEGM8HA6rmhKNROs3b96ze8+mqsrqmurCghVOZbUYlEga5y8kf/JT85PPuaoIxtYnZ8UGiVBVlJZm7bvfgbxArTIAN1DM9Wkg+Yc/zPyf/0UZGLTWfXieAsgYyvKy0P/wD+E/++ZaaZaNbQZENDY21tHe3tHe3tnZ2d/XPz0zg4j2wGlPvNbEZmwPzt4VIkqSRFRUWNjQ0FhTV9PU1NTY2FhSUuoVXnJnmUGJRPLLk8aPfyKvXifLEmu68+WgWBbs2K79x7/O+/v/lK5swCwCDyszlObm0NtvJt//ORnGOnfrCCApBBsZ1f/9xzQ5oX37W+r2JlijKeVsRUDE0tLSaDS6ralpenp6fGysv6//SVfX4ODA1ORkMqnrhmEahpQSERlj9nbush1JTskZoj2iyVElSRIIJEkShABc5Zwr+QX5eXl5oVCooaGhfvPmqqqqoqKicDgcjUbD4fDa6pSN6O7RP/lM/9Vv6HEnmeb/396ZP7dxpP29u+fEDQLEwfsSSYmWRB0UbcunbEtre72+1uvbu2+lUqlU5a9JVX5OUptUJW/VpjZ5s/u+m3crFXs3Wa+1lnWTFCmCNw4SNwYYzNHd+WFIiqZAYECAlEjMx1WyBDwzPZjp/vbTzzzdTQ8rym4AAUAQYI4TX39VvPp6LXOL3VgeVp2omnbnjvRv/x25cZMWCvQQJ1IYYxZEKVBV1N3Fvf2m8Okn7NDAgepmPpdb39jIZDLZTKYgSbIsl6RisVRUFEXX9EKhUCqVZFkuy2UAN1Vvl2AZ/xJF0eFwcDzvdDhsNrvdZnO6HDwvtPl83jYvz3GBYDAQCNhstioX0zh4aVn9n79X/9tvtbl5AAHg2D02kTgQKAAMxhzL0ucmbf/mX/OXn691hMVuDrCuH094jj171vaLD5V8Ht++Syk9nAkcYCvCQiBkeJ4sLOI798hbbx70+oJuj8ft8Rh/L8myqipysVQoFCRJkmU5mUzmsrlsNpfP5SBCj9r+1kDPyPOCELpcLp/PZ3c4fH6f1+N1u1xuj5vjeKfLxTTJSTQDjsX1W3fo/SnkdB74OmePASmFDAODIeH9d9mxsVrmFhWwBKtuIMeK167ps/N0PQnWouSw5nBsQzGGAwPsyy8Jly4eQub9NnabzW6zeT3eDgDAVt45IRhjQn68ZJghUjs/QQxiGAYh9GSnBLEjw/qF8/r1v6FikZDD3vYa6hiGQ/SVl9iXXkReTy1ziwpYglU/EAJREN5+E8Ti6n/9e8QyB+vkbEEBQJSyAGKXU/jkI9vHPz9MtXocI2qOEDrIIWmTQb42/rVXaTIl/4dfA01HPHdoARGOEMJz6Py441/+HfI3mpjSsjzJ7u5Iw42d5N64gi5egITCAx6XGSAAIMaEZfg3XhOuvo46wrWOsKgAO3KCf+8d9spL0O0GqlrLvDlAAHBJRuNnhXffYU4MQe7oaPxThnXj9g83OUFS6bJcRktLVFXJAQ92IMbAbgdjJ4WPPmSs3Oj9QQFAiDs9ZvvlF7KO8XfXoaIc+IOjFEJIOjvEN68Jr71ay9yiGpZg7R/k9wvv/pSWy+qv/zOej0BBOLjxBQKAEsKcGBR/9SU3cRGKYq0jLCphjKEZRnj1FZIrqEWJfPc30vAMzSoY2SLA4RB//r7w2hUrqb1BDrZvOfYgp1N4+yd0+ATgeQYf4HsnplzmRk7w7/1M/Mk1eMDv/lsE4YXn2OeeJXYbSyk8mOQeCgBSFN7t5t56U/zkF8yJhtZutgCWYDUKQkxnp/2Lz9jXXiUsyxxAvYeUspRSp5N9+UXh2huWb9UsUHs7f/V17oP3qNeDDmAFDgoAq+tQFOHpZ8RffMgODja9iBbEGhI2AeG1V6mqklwe3LiJmpuZRQEEENhEdPk57uobbF9frQMs6oA9c9pGSalYJP/3LzCdoU1938kAAFkWnRtn33uHv3jeWvu4KTTzCbUywouXabFYjCygXA4R0izNQoQAUdQHB9x/9xU3cbGWuUV9QIZhx8Zsn39WWo3SVKaJnQ2klIEQd3cJH75n+/B9S62ahXUfmwN0OvnJS+IvPgIeL1CUpsREIABAVVA45PjqC25srPHV+yweBwoCf+kie/V1ZqAflpUmPDbjwWGMNU18/13hpRdBY0uYWezEWnG0aSCHg+nqBByHkxs4nkCNTTOkADByGXZ1cm//xP7px8jXVusIi/3CMExXJymX9YUlVi5TAHbn6dcDopTRNMbnY99+0/bxR6yVgNJUrCFh82AZ5sSg+PnHRFVILofSWcIw+14AngEAOOzcSy8I7/3MUquDhunqFN55iyST5He/h2Vln8/MQFVhIMBfeYX71VfM6Ggta4v6sIaETYbp7BTfeVt47TXocOx7rWEEAMuwaHycf/tt/uyZWuYWTYB7Zsz2yc/J0CASBLSvqQsQAEQB5gX4wnP8L7/gzp1tZH82i4pYgtV82FMnhS8+Y9/7KXDYoa7X210jShEAusspfvkZ//xkLXOLpsEMDgqff0Lb2qii1NswIAAQY1guC29cET//lD1/rtYRFvvBimE1H8gwyO9jentwMgXicZjPm182C1IKVRWEgsIvfi68dQ21t9c6wqJpQEFgOjogy+CNJI7Fze8aDyGkikrtDv6tn9i++oKfnGhwrxCLvbBiWAcCFAR2bEz89GMVIe3rP8F0GrDm1orDGPb2cFdfFz/6kLGmNx8yCDGBgPjRhziZJtEYUy7rEJpZEgPKJRgIMq+8LH75KXfxAmQYQKmZAy3qxRKsA0S4/DwQeIqQ/k//CygqqboJKwQAAUAEnn35BduvvmKHrGkcTwYUDPKvvULn5+G33xFdrxnNQpRCUeRevCz+q3/BnX5m81NLrQ4GS7AOFuHiRciwcrEMv/5aL5XwHqMMY60rnhA8NMBNXrLU6snCT14CJbkUjTLLK0BR99o6FwIAKUU6Zt/9qfDLzx+plcWBYcWwDhzk9aKuTqwoZH0D5HKQZcCPx4YUAEQIYhgSbOc/+Uh4/TXkbvKuVhZ1ARkGedzQ49Zn50A2iwDc5RpTABhKkaoBu535yVXxy8/5SxNWOvshYAnWgQNZFnWEYWcHgIik0jS5ARlm55ABGW8GwyHug3eFn73D9vfvfTKLQwLa7UxnBymVSDRKN5KU5Xb2MogQiDHq6uKuvSF89gk/ccF8hN6iEawh4WEAEeLHzyKvl7Ks8l/+HpZlgMl2ghbSdej1oIkLts8/Y3p6qp3I4hBBfr/t449IPKFHY5AQCjcdKAgAQoiGguyb12xffs4ODwEArCj74WB5WIcH8nqYcJgySFteZYpFZGzVQClRyszERfGrL7lnnrGGFU8VyOOhgNKNJFhdM/QIUcIiSLwe4fNPbZ9/wg4NbJpaanUoWB7WocIO9Nm//JwbP1P+9/+JfPsdBwgEEJ86xb31Jv/SC8BKjH76EF59BWAiZ/Pc3ByVJOpygrFTjk8/4V54nunuqnW0RZOxBOtwYVmmpxt1hIGGVYed3LlLBUH44H3x6hsHuh+qxb6BPM89O6m/s6j9x18DQWCfneQ+eFd4+UXosfbpegJYjeQJAFlW+Omb0OtR/vi/qSgK77zFdHXUOsjiicF43OLb1/DiIkCIv/qG8MaVWkdYHBTWVvVPDKpptFQCug7dbusd09MOpSSZhDwPHQ5g+cJPDkuwniiUAkqtQPvRgBBgbqaOxcFhCZaFhcWRwerbLSwsjgyWYFlYWBwZLMGysLA4MliCZWFhcWSwBMvCwuLIYAmWhYXFkcESLAsLiyODJVgWFhZHhlacZEApJYSYzJiFECKEGtgJGFBKMcHAVGnAKKticcYFG2vSPP7toWG+dEqpqqqqquq6Xi6XZVkul8tKWcEEP3YKCACggEIIWZa122yCIAiiwPMCy7I8z3Mchw54PkBdtWIbiCCDGlpjwyjUTLmNV8VjQCsKlq7r8XhcUZSajZ9g4vF4vG1eQRCqmFVHUZREPKFqKqjV2gkhXq/X6/XyPP/4t6VSqVAo6JoGD7jpVoQQwrKsy+Wy2+01tUPXdVVRcvl8ciOZzWSkYjGVTMbj8VQqlclkVE1DeygyYpDNZmv3t/vbfX6/3+ttczicHq/H4/W6nS67w35wylUqlTKZjCzLdSmCIAiBQEAQhLqO2oZSKklSJpNRygpiqv0ugoloE9va2lwuVxWzY08rCpZUkH7/u9/H43Ed6yxT7Q6UlfLkpcnLly+HG9hxa319/bf//bfpdJoSyuy9XR2hFGP8/HPPTk5OBkOhxw3m5uauX7+eTqVYlgUQAlp127DtDnunDd3+J9yygABQQI315yp18hQAACCE5XLZ7fG88MILp06dstlsFSy3IITMPpidmrq/uLiYTqWLxSKg1Ph1hBCM8bZaQQi3FjHc7DkopbIsR6PRRCKBEGIQggiJouhyuwKB4NDQ4JmzZwOBQJXS983S0tKfvvnT6uqqUWotc0ABxTr2+/zvvf9uT28vt6/p67quz0fmv/n6m7W1NYfDUcUNL5VKfX19ly9fPn/h/J5GLUArCpau6+uJ9UQioWta9Y5RVdV0Jq2oShWbmqiKuh5PZDIZXderFGeM97LZrKppFQ3yufzK8kpyYwNW3sPlYNE1PRgM5nI5jHFFA0rp/HwkMj+/vp5YWVnNpNPFYlFRFF3XIQCGV7jr528Pcrf/BHRTCB59AgBCKJPJrK9vLC0t3r17N9wR7uzs6u3t7enpaZa3VSwW52bn7t25azjCAGytIPr4SM3oKgAAAGBCSsXi3bt323y+tra23ZYmoJSWiqVsJruR2MjxWQB+dH4AtjoYClRVdTmdxVKx4nlah1YULAooxjolhJAam84RQvYR19gFpRTrGFBaszjDeK/isI5VRVFVtcHr2R+Gc6TresXSi8Xi3Nzcjb/dePDgQS6XLcsyRMhwJ6s4lXth6NpOddM0TVXVdCq1srTscDoCoVBXV9eFCxdGR0ebMkRaWFiYf/gwn8/zAg9M319KqVyW7967N/bMM/sTLAAAJRRBCAHFWAfVfGZAKaUmqtDxphUFCwBAjccPKKxVRSCoHAKvB0oBJbVawfawaK/CIIQIMaBWIOwgoIb/B0DF25XLZh/MPPg/X3+9EFkol2WGYTieN93qzQIh5DgOQqgo6tLC4sO5h4lEolQsnb9w3uFwNOhqzczMrEWjLMfWddkQQl3Da6tra2trvb29+w50bvVStdQKAEoP+9E/bTT0mI861dXKYhtDtSverEKhcOP7G7/5zW+WFhd1XTP8qbqafV0YZ2YYxiaKy4tLf/jDH/7wT3/I5XJmvNeKEEJSqdTKynI2k9lHT0AJkUul+fmH8Xislm1VahW99fVB3dijQgsLVq0q0kwOsaiDYg8Nun3r9p///OdMJmO8da1oU5G6jB+HUoox3ljfuPnDzX/83T8mk8laR1RG17TlpaV0Mq1q6j4eEwUUIRR5GFmILNaybYgaDljL0KJDQmA9/jp5XF0opUtLS7du3VpYXGRMj8gwxhAChBiWZeHWFvCG+mCMAQUQmR2DQwgx1hOJeLFY7B/sd7ldNrHa68uKFCRpampKkiQE0f7cF4RQPB5fXFjIjI9727wmL95if7SuYO2rch4Z6Pb/m/c7d/lEqqpev359YWGBEGJSsBBCRiaXzW4TRRtikDEqp4TI5bJaVspKWS7LZblscogHISSE5PO527dvB4PB4eHhWkf8CF3X47H4g5kHsiyz+12pnVKqKMpadC2yEDnvPW8J1oGyz4d01GmZOtXEMN2PljMnhGSz2empqXQqxZlr6gzD2Oz2yeeePXnypM/ns9lsDIOMJCxKaEmWy3I5Govev3//wfRMqVQyvqp11s25Abdu3uzu7h4YGKhLd3LZ7Pz8w/X1dUVRUQPJIjzPJ5Op6anp8fHxBsP/FtWp4+keJ2q3g6ZTq+NtVs9MKXU4HENDQz6fj2VZTCqnTdWLrusul7u7p9vIwpdleWFhoVgsEkJqNlFKCc/zvb29L7z00ujoaFtbG8MwCD1Kd6cUtBFCCOns6hwaHJoZHrnx/Y3FxUVdr5yStgtKabFYikVjiXi8q7u7lvkjVlZWbt++bYxSGwFCWJSkaDSaTCaDwWDNG7IPtnqexi706NOigvUEqOUs0FrzhExCAbA77OPnxvv7+0WbDet6rSNMAAHBhGFZj8djpHSXSqWZ6RmlrJhpnBiTUCh06dnJiYkJh8PxuAGEwDgPz/Mul6vN1+Z0Orn/x96/f59hGFN+FkQbG+srKyvmBatYLC4uLi4tLVXPXEEIGdemV72TmqalU6m52VmXy1XxNzbI1ti+9q043rSuYDVBG55OKOV4PtzR0dvXt4+kTZMoihKLxbRaUwUAMObfgGAoNHZqzGRLdrlcFy5eyOWyMzMzAIDNeUQVyzHaLwQMg3LZXCKRqGRUmUQiEY3GynJZFMUqZg6H3eV2AwDWE+vVf2+xKN25fbt/YMDkz7TYB60rWMe5qyJU1zRN0w5OsCCELMvWVCsDCAGgwFiVwOQhLMt629r8gXapUKCUQoT2clGNUJeiKISSvaYNVWRjYyOXy1b34Agh7e2B4ZFhxDB//uZPiqLsdUsRQuWyMjU9PX7+fCAYFPebRGpRndYVLFPtpnboyQQQminNZEuuTlNOYgZKKSbYjOgbchCPx+/dvetwOnw+X60jAACAYZjTp093dnTo5jSIUoIQ4zY3TYcQUsjnp6em1tbWqgTpIYSarvnb/SdPnsQY//Uvf6FbU7Ur2hNCVEWdfTDb3d3d399f0WbfNPHtyZGmdQXLTGMzaNBPYRkWmpAS897H0wA01maqZWaAEEolk9evX0+lU+Fw2Of3edwel9vt9nj28kQghC6XqynzBB9H1/WHDx8uLy9LklR9NSuGYYKh0NDQUKlU8vv9hUIB42r5FpTSpcWl5Eay6YLVzPyUo0zrCpYZEELZbHZ+fl5RFE3TzER/d2G32xcXFzRNNZlY1CCbVwgfhYoPCJ7nw+Hw2sqqGZ1FCJUVZXFxcXV11e12+/y+dn+7v709EAx4PB5BEBjECILA8RzLsgzD8BzHsKzx94NYsk4ule7dvZtJZ6qLAITQ5/OHQyGny8Xx/PDwcDqd2djYqJ45sbG+Ho81Nk2nCs2+FUeOFhUsU4M0AFiWiUQWYvE4x3LgsczJ3cAKbhtCSFWVQkE6HMEyoBQQQnRd53m+rrBOFXYJh8vlGh8fn74/lc1mzSgjhJtv4gqFQj6fj8xHCCEMw9hsNpvdznO8y+Ww2e12u8Ptdrf7/S6P2+12u1wuURQdDge/NZt6+zz7hhKSTCZnZ2akQgFV9Z0ZhhnoHwiGwgAAlmXPjo/PRyKxWIzjuCo1IV8oRBYWIpH5wcGhvWz2T/1d5jGjRQWLmn30UFXVmstmVYeaW1imiUiFwvXrf4tEFjiOa7xoCiikYGR0ZGR0dPtDnufDoZDH40kmk+aLIIQYMaDtYFC5XFZUFUGYyaSRMcxkGCMTVRRFT5vXYbMHgoH2QMDtdttsNp/f1+Ztq7giq0nSmcz9e/dzBQkTUuWxGsvpDAwN+HxtAACEUEdHR2dHx0JkoUofQCnlOC6RiM9MzwwODDbXITJVYY87LSpYAJhzsQCghOAdvhWEu5Xu8U/A1rm3P25E7+oFQijL8vTUFM8LCKFNx2QrMcBMpX/cTFNVluV2ChZCyOttG3tmLJPJRKNRQRBMjpe3HSXjn4QQQAgGQFVV4zvDgGCMGMYYfzkWHTa73VjZ3eN2e7xeb5vX7/eHw+H2QKDe93HxWGxqeqp6UhUAgGVZj8fT1dVlxNEghG6Pp7u7p729PRaLVXmgCMFUMjU7Ozcxse5vb28wALqTw6tDTzEtLFj1sLOCPl5X96q9T6SGQQgxxul02pQ4mQBCqMhKPpff9bkgChcuXEgkEplMpvGBJ4Rw51022rmmaZqqlopFTDZTFow9KRxOZ6A90N3T3dff19PTGwwGnE7n3ud+hKIoa9HoysoKqepeUUpFQejp7g4Ggzu9uY7OznA4vLa2Vl2GZFmOx2LT09MTly5ZOVnNxRKs4wmETXsPDiFkBY7jK1SV7p6e8+fOp5KpSCRyUCNfCCGELEIsyxo/CGOcz+Xyudzs7AOXy3VieHji0sSZM2fcbneNUwGQSqXi8XixWKy+lj/GWLTb+ocGvF7vzs8DwUCoI2zE0ap4lAzDlEqlO7dvnzx1yhKs5tLKgtUkD6SpNElkmkyVqzo5dqoky4V8IZGIm5lX2Ai7HhjDoLKizM3ORldX89nss88/XzPJa2V5ZXV5BYJqcmN4Xi6na2R4ZFewzO/3h0MhjmWrrx9rjMrn5h4mEolgMHiYAYFjT4sKFtz+4ynjaRTRqjidzrPjZx12eySycO/e3eWVZU3TWIbd+Vaxuj/SAJBgXCqV5FLpm6+/KRZLz1++3NXdVdGUEFIqlaanppaXlqrv4kEIcTqdPb09AwMDu/bCgRB2dnYOj4zOzz9UVbWKEmGMi8ViJBLp6ury+/17mdVNy2tfiwpWXa2n8cZ2dPtY48pp1XeqXq/34qWJ/sFBf8A/NTW1sb4uSZIsy5qqEUK2h4rGSGrngU0RMuO0KyurGGNBFIKhYMUdtzDGc7OzS4tLhYIk2qpNHtR1PRgKDg8Pi5V2M/O3t489M7aysqwoSvXHCiGMzEdGRkaaKVgN366jTosKFjTtX7Es28jmnRBCHeuKolBSo6o1V9QgaE5vbJxnt9JUwu/3Xbly5fTp05H5+cjCQjwWy+VySrmsafp2zu2mem1R65RmoZTa7LZ0JjM9PXXmzJmu7u7HNUtV1ampqYKU54UaKREY43C4Y2BgsOK3dputp6fb4XCUSqXq40oIYXRtLRqNjp48aXKBQ4uatKhgUXNOFqW0zefr6uryeNz7exHGsVw6k56ZmTHcjSqW1ETKuEmM1kIpBdsblO4h0Ht9/siAUkoINKenEEK/3+/1esfPndM0TSoU0pmMVJAkqZDL53PZXC6XLctlqSDlCwVZLmGMjV+9SxL34XkZSphKpm/fvtPeHtglWJTSXC63vr4hl2u7RaIg+traPF5PRQNBFMPhcEdHpyRJxVKxyqsNSul6Yj0yHxk9OdrT3bOXmUVdtKhggVoN1UDX9a6urssvXO7u7sa6Xl8bAgAAYLPZHszMLC0uYR2b8SnMXFV1KKVOl/P06dOBQIDjuP3p7I+ggAI6Onqylh0AADAMY7zyt9lsbre7PRDQNE3XdVVVVVVVFEVVlKJUzOfzUrGoY13KF9KZdC6XK+QLuVyuXC7DrcxSBiGWZeu656VSaWlpUSpKTtePshwURYnHYrFotFxrJ3qEkNvraQ9Uy5PwB9pPDJ+IxaL5fL7KNB1KKUQwMj9/9/bdxgVrOx5Y3ezY07qCOSSo6QAACmxJREFUZQZKqdPp7OrqClXaO94kHR2d5ldiqat9VoQCarfbz5w9e+LECZvNVjNDsjYQAAqqLxq1FzzPV8hKp0BRFEVVCCVFqZjNZPOFvFSQstlMoVBQFKUslyVJymazuVzOfNQGIaSq6sZGMp/Ph0KhnTd8Y3391s1b+XzemA9Uy32jq6sr3333Hd3kR1+xLEsISafTZm4sy7IbGxtzs7OFl150ulwm60BFti7D7N04rrSoYEHTT17X9bLS0Fb1mqZSs2PQZkABwzAul2t7ddCnDggEURBEAQDg9Xi7uh6911NVNZfLFSVpY2Njdnbu/v376VRK00wtlAwA0DEuFAqSJGmati2UGOOFxcUbP/xgZF1UVytCSC6X/+u3f/3++xsVLeFWdFCW5dpZ7BAoZSWdTq+trQ0ODTUyo2iTBiTveNCiglWXeDSljph2FJoBBQRjjPEBCRb98fSaJsJxnN/v9/l8ff39wyMjff19//A//iFles9BgrFcKillZedK9slkcnVlpVDIGzPYq0MppRQrClE1tXotMRVzpAAhpCjK2tpab19fEwTrUKvR00iLCtZxpXYTagYE41g8Pj09rZTLgJoqVNd1l9s9+eykw+GoYr8z+u71ek+dOjUzPX1PUXK5nJkXtUboHWNMd0QLV5ZXFhYWEax9+DaUUmpqdcLasCwrSdLNH24ODg71D/SbuVcWVbAE61hRKzrTHCigyY3kt3/5S6lYqj4pb/sITdUDwUBHR3joxAnzjobH4zEGtiZ/F0SI4ziWZY21BSmluq4vLCzEotHaw7eDAUJYLpdXllfmZufafG275vpY1EvrClbNRnbUMaEj+wQhBmOcSWWkomSkJtQ6AhBCMMX37t1rDwQCgUAt802KxWI2k62eU74TdnOBLZshT4SQxYWFleVlSZJYljVznQcBoURRlemZ6b6BPkuwGqRFBQs+fdEAk23SDBTQbR3Rdb2JZzYm3CCE7Hab3WGTy7I5D8sI5ai3bt82Mr/NjO9UVV1aWjJ2PzRjDwBgGMbpcjocDiPbgBDyYOZBMpkEh+V7VgQCiDFemI9E16IjoyONzUpv5NjjQIsKFjX/vsWkWcOYCuKaAEJYlIrffXc9EllgOY40nocFAIRQUVW7zTY2NmbspepwON1uTzabM+/+6JqWXN/453/+59XV1ZGRkZ6enopzXwzWVtfu3Lnzww8/ZDIZk1pDKRUEIRQKud1u45IkSYosREzGv8AuUTP9ItnMzyeEZLKZaDSaTqUbmqlTu6hjTosKlkkgMFtrnx4ghKVSaWZ6ev7hwyq7Y9UJVDW13e/3tnlD4RDP8x6v58zZs4lEQipK1Zdq2YZSqqnqw7mH6VR6/uF8uCPscrkdTqfdbhMEwdAHRVHyubxUlOKx2NLiUjwer3XWR2CMRVEcGBy02+0AAKVcXlpcjMVicq1kUQAApYDjWI7jHj3u7SN23T/jQrf+pJRq2uaUSVAVQsjy8vLCwmJDglWrlGOPqarWshzR2oExzuVytazqwEigFHhelmUjX9/lcl2cuDg1fV8qSrqqV1//YBuIkK7rsVhsdXXVGF06nS5vm9fpdBgKIBWk9fUNVVOxriOEzIfbAQAsy/rb20dHR40c12QyeevmrUK+QAmFTI3LE0Wxq6srHA6ZnhgAAaAIIR3jjY31RDxRKpWqyyLHcbFY7OHc3Lnz4yYl3uJxWvfGmW0HR5OaPkVdQAgJxhDC7fgLQigQCExempQK0vzDefMv/sDW9B3jCstlOREv79yvmVJq7JYD6gk8UUpDwdCpk6cGBwcBAJqmLSwu3rhxQ1VVxNQYD0IIOzrCV167MjE5UZbL1Y13wrJsuVy+d/fuH//4x0KhUH03HYRQIZ9fWVlZXlru7e2tbmyxF61715rZoGtCa5fXXIlpPo9dHkJo/Ny5RCKRSqYkSTIZJ9pmW4zMq1JlKAAAMCxz6plTE5cmjM+SyeTy0rIkFRkGwapTqSmlGOPR0dHBoUGe480kl24DIeR5fnhk5Pu/fb+yvFLd2PBSM+n0w7mHnZ2d9QpWY6H640N9lew40VgrqRMTEdxG2+0BU/HyPB7P5OTk889f9ni9lFJKmvPewCQQQkIIBdTtdr/00suXL1/u6Ogwvkomk/F4bEslqt1YhJDNZu/t62tvbzfOaR4AAMuygUCwu6fb6/XWfIIQoWw2e/vWzXQ6Vd3ycTY3Uj3E2/t0Up/MHytqVS+LncA9mkpffz9iGADBgwcP1hMJY7mFvYybCKWUEGITxVA4fGJ4+MqVK51dndvfxqLReCxWc54zpZTn+XA4FAi01+vybMOyTF9f3/zcw2wmw1QfFUIoy/Li4uLc7Jzb5Xb+eF9rCmhtN6rl62zreliH0Kh2Ursu1vr+qaWnp+eDDz+4eu1qd08PQgzLctshqoMAQsgwDMdxDGL6+weuXbv64YcfbKsVpTSVSkUiC9Fo7e2XKaWCIPQP9LtMbGBRhY6OjvZAgJhITIEQEkJv37ydSKzv/spUDWh1xdpnr3K0oVTXdF3Xd78SMioD3Po7BBhjjHUz61hVgQKAsTEZudoGnAAACCHWMaGViyMY65pmnISaaBtNYCv0ZrgzmOx5baIoTkxMeL3eBw8eRNfW4rF4IpFQFIXjuF0OFzS9ON/2c9iGEKIoisPh6OjobA+0d3d3nzp1amCgn9+xNSHG+K/ffru0uAgh1LWtFWB2PNNHJ4WAYMKybG9fn23vjDAzdHZ1dvd0i6Ko63vXFgoooBBCVVUjkUg8Fhs6MQQAMNZg3VzL0FCtXRFPoyrqWNP1nZO6W5NWFCxRFM+dG4/FY6pSI+lR09Tunp4Ga7Pdbh89OSrlCxjjKsVRQCmlnV2doli5OH+7f2R0JBAK1DWPt1noum5sX1px6AQhFEVxZGQkFArlstlkKp1KJmOx6NpaNJVMqqqq67qu68ZvNPRiewQEt30LQ8m29Mz4HCLIMAzLsqJo8/t8HZ0dXV3doXDY6/V4PV5vm3fn9VBKy+WypmmhcLjN11b9RlFKAIThUHhoaGh/q31tw7Lc4NDQ5ORkNpfd1J0qQIAgYjlO03WGYdp8vv6BfkEUeG7PN60UUEBBT2/vdpCuZTHb3R0nNE1LxOOZbEZVNVRVsDDG7YFAKBRqRLMkSVpaWlIUBVBaPZOTUBIIBAOBQMXiUslkIpGQZbne93FNAEJd13me6+zsamtrMxPu0XQtEU9EIpFEPCEVpVKxKJdkTIz/CKUEGNs+U0O6KDQ8CwoABHBzAhDDMAxikCgIDofD7fEEA8HBocFwOLzXsjmEECNIJMsyqhVKI4QghnG73T09PXWlZVSkWCzGorF8PgeMDWErPmS42S8BAIKhUDAU4lg2k8nEotFiqcRx3F51g25ute0NBAItvtFhKwqWxSGjaVohny+VShhjTdc1Y2BLqY51omNMCKEUAgAgRBAyLMsyDMMwLMfxPI8Qsttsbrebr3NLeotjiSVYFgcOpUYQ7NGAb7vWVax+hme0HfyCEO7c5dCilbEEy8LC4shw6NEQCwsLi/1iCZaFhcWR4f8DAVU25ZYkGTsAAAAASUVORK5CYII=;" parent="1" vertex="1">
          <mxGeometry x="858.97" y="622.34" width="89.06" height="55.66" as="geometry" />
        </mxCell>
        <mxCell id="ujX-c3RJfpw3Tra9EMkt-72" value="" style="rounded=1;whiteSpace=wrap;html=1;strokeWidth=1;fillColor=none;" parent="1" vertex="1">
          <mxGeometry x="388.5" y="83.75" width="90" height="80" as="geometry" />
        </mxCell>
        <mxCell id="ujX-c3RJfpw3Tra9EMkt-73" value="" style="shape=image;verticalLabelPosition=bottom;labelBackgroundColor=#ffffff;verticalAlign=top;aspect=fixed;imageAspect=0;image=data:image/png,iVBORw0KGgoAAAANSUhEUgAAAMgAAADICAIAAAAiOjnJAAAABGdBTUEAALGPC/xhBQAAACBjSFJNAAB6JgAAgIQAAPoAAACA6AAAdTAAAOpgAAA6mAAAF3CculE8AAAABmJLR0QA/wD/AP+gvaeTAAAAB3RJTUUH4gMBBDcvVJs4LQAAJlJJREFUeF7tnXmYFEXe538RmVlXd/VRVx/QzdUi0B4MqIAMyiGgyCEO0oB4Me54jDIzzzzjuDPz7rvvzu7OvPPu4/MMOj54rKsDSHMroKMiIDMCgwIKqA3aIHfTV/XdXVWZGbF/RGVU1NEHSKLuxueB7qzIyDi/8YtfRkZlI0opSCSXG9xbBInkUpDCktiCFJbEFqSwJLYghSWxBSksiS1IYUlsQQpLYgtSWBJbkMKS2IIUlsQWpLAktiCFJbEFKSyJLUhhSWxBCktiC1JYEluQwpLYghSWxBaksCS2IIUlsQUpLIktSGFJbEEKS2ILUlgSW5DCktiCFJbEFqSwJLYghSWxBSksiS1IYUlsQQpLYgtSWBJbkMKS2IIUlsQWpLAktiCFJbEFKSyJLUhhSWxBCktiC1JYEluQwpLYghSWxBaksCS2IIUlsQUpLIktSGFJbEEKS2ILUlgSW5DCktiCFJbEFqSwJLYghSWxBSksiS1IYUlsQe0tguT/bwilQFFvsdJBlNLe4kgkF420WJJMUAAEAKDXNpldMawowAwQQgCZLJEVnyMtliQJphBKKQIAhD5b8NPw9g+1PB+YJgACrivrAEH8ID5fWvKSFkuSBFMV/2iejxgNbUrYSQkRrRI/phkNmBSWJAUKAAghSoECRYCcLgW8isdLDROoZacsfSEKFElhSfoGsqY2BIBMQsGkxABCmCmjCHEjRSGzxwVSWJIUEAAg4JMhQsKUl2nVgRuslDUJKSxJBrhISMJHzyArbttSQkCuvEv6RuYJj0kK8dtDAIri/6SwJD3B3XRuitKddSYvvgrBkMKS9II4BaK05zupH0n8NlEKS9ILgj1KOyWYsfgxRkxqUliSXhA9KEibCrn/TpEgL3lXKOkZ7jmRTGsNKYjTohSWpHeo5V317GCBYMDkVCi5DIiTIEMKS9IT1PolLlkx0sUEwsqWFJakJxQAAMoccwCgiELKPqu0xXc2Y/bkY9m0VQuhnvxASimLYFPuPdNz2VLgRU05vjR6ru+lJX6xbSjkgiilCAEgBUDDWAHM9jwA11g8nnh54jftSViXVpm+QClldcY41WTyTO3LvQcohYvNlknqG5a2L7rsSxwRQkh68/aKlUv8kbMRbdWhEXcgSk1x0SEeOW3nqBUjk7BY0rFYrK6uDmMl5co0CKUUIVYBlk3G+PHSuFzO3NxcRVFYG/VQ+Wg0WldXpyiqWBMAtllIDGE5ijW0HIO4SnorFaIAyDSI2+0KBPyZomWAdzMrz0V1eQrs8ra2tqamJk3TKOV1IazkhJBQKOhwOPque9awQppIaEZ+jJhRUxRMCGlpaRk4cIDb7Y5vskIAAO6r+2XXDNXy8qlBrAuTuyNTw1KgGbYmszKdOnXqub887/FkYYwzWtREByc1K8q4pZCfVjXN7XYHAv4Rw4cNHz48KysL0uTFGrq6+vjyF17yerMpJWIafNTEa5nc1ggl9nzEDTd0B4J4VKqqWjgcvqZ8xJIlD3UbXYAV+PTpM5s2vfH4448yNVyywlhqu3bt2rBhUzAUMk0zkQRCpmlGIpEnn/hpSUn/vhgh1ikIoaqqoxs3bopEIqqmJdokLbKmadFotLmpefLkiTNn3qlpGgVh24JJwBK6NXxFXaYnGS97t1MhQtjpdDmcTgVjNnOlKMwSFopv/LI22yOglCYmCEKpqDxKaUtLS2NjY1XVUW/2tvHjb54wYQLGOL3JMFZcLrfT4aSUiPNi5nrwuiJECEEIQdygc+lRoPEy87Kx6lBKVVV1uVwOhwZ9gDWFrusbN246duzLrVvfmjv3LnbqElTFUVTN5XY7HE7TNAABRphNBSYxgMZ9hl7T5824ffuOd955L9ubne31EkIAAOIdk5SIqqrNzc0YoYcfXnL99ddBfFQDe+iMKICS1Cko5XfqcYIehAUIIYwQsgw+JMSU0tHxc/HPFACAqxAjlGK+3W43q3w0Gt2y9e1PDx25/7578/PzU7SFEGBEEUaUMBkApQnrmJC4lTjPIykRy7aBZUqRVSMGBcAI4XhIZmOQYofYx/UbNp2vqRl69dB/fLi7qKh47Nib+mJOegABRQhhjAhJlBAhQEJj9zwVsgJ0dnVVrl7zRVVVIBAAy4gySWGEE9JACGNcX1/fr7h4wYKKgoIQH2/xCNCdZvrERTeE2K9iOXhPpwSKRo5aEEIIIQ6Ho7CwsLa29tln/1JbW8fsFiTDLyckOS0ASBY6TYNfzj+CUIb4hWBJs5seo8mqYp23d+++jz/eHwgEYrFYIBB4c/ObNTUXMpb/EkgRMaQZ6XRYdTDGZ86cXbbsuWNffllYWIgQIqYJQhuyViKEKIpCCKm5cOGG0aOffOKnBQWhuJm/fPRBWKm92S00OWa65iC51QghsVjM5/OZpvnCCy+2tLRm9Oe4elIu75n0mBmvRYjNEN0OznRVnT59ZvPmzX6/jw0PTdMcmnPlylXRaLQ7f/SiEIdBX2CaQAjt2b33+eeXd3VFg8GgYRg07XaV6d7hcLR3dLS2tt49d878+fOwEvdDLirTXuldWFQY9ywkpbg8MHGJRYr14tHYMcYYYxyLxXJyczu7ulateh2SZSQmmzFTMUFkkXJWDKfCrRwP6WODstaPRmOrV69xOJ0Oh4P1qGkY3hxvQ2PjunXre0ujd3i7pcsiI6xUhNC1a9dvfOONnNyc7OxsXddB6DUxHVVRGhoaXE7nY48+8sPx41l2fXTgLoreH0KndEnGQHYgqp43DY+MrNmKJ8IGEHOE/X7/iRMndu/eO378OLGjqZCamDXPi5eKf+SRxQLHpYwQSeswhHHcley+ZXld1q5dGw43BkMhXdcxxixdVv5PPvl0wICBEyaM/6bOVvLdZXeq55q4cKF2zZq1Z86eC4WCAMg0dWaFxa6hlLLp70Jt7fDhwxYtXODxeL5hOXumF2GJUuBFRAgZhkEIwQhTsIxZN4Kn8e8RxVNQVTWjL0IIycnN/fDDD2+4YZTT6eTxxYlY1BBLgWZyZgUVopR+iVcBKJD4R0Dx5QnDMAkxU9MSLsQY7/xg16FDhwsKCw3D4IVhB4SQYCi09a23+vUvHjxo0CX1GYLkoRgfHvFzSbD0EUKHDh9Zt249xriwsMAwdKsf4qWjlCIASqmmOTo7O9raWqdPnzpt6lSeAthG7xaLkUE2lFL2LhKIl17sQ2Std1CgFBKjp729XVXVrKysFG0RQjweT11d3ZEjn91ww+h4DlY+qTYGoWgkSogJ8d0ciR2zFFDS0hUCoAT44osVyfqFAIACVRS1s7MzFo1BJlgfnDjx9TvvvBsIBk1T0J+gdUVRXC7X6tVrfvHzpR6PhxCKcbcmsDtEW5UUDgBWbtwlevvtv+38YFdeXp7T6RSnP0i28Q5Na2puVjB+8IEHystHUMsPSc/lMtInYYm1xRg3NTVNve22MWNu7OqKYIwEw4B41cTGEUJQOBx+5513L9TW5uXlGYYh5sIc4a++qmbCYoMvaewixDKIRqNz5swqLi6KxWLWon8it+SPcSlZti1zTyMEhmG63a70U4RQjHF7e8fq1ZVutwdjhRk2fhvFf5qm6fV6GxobK9esXfLQg5egqu7ga5KUUmY729raVq5afeLEiWAwCAC8JUWjDgDMql2orR1QWrpgwfxAIGCaJgvsJqvLRp+ExWBlZVO12+3Kzs7Ozs7u7aJU/H7fgAEDXnrp5dra2qzsbG632AhzOp3nzp3v6OjMyvKAYOcS1yNETNM0zOLiooKCgoxZXF6YPlZXrmnv6PD5/LqusxBmM5DgzyGEdF33+3yff/bFtve3T71tyjeZbqx5kLUA4UMCY1xdfXz16srOrq6CggJ+98cvRJYvq6qqruvhcHjsmDHz5t0NAIQQRVEy5Xb56VO1+aAURicBANM0aW8QQvhPSqlhGA6HNn36NLFFKI0PR4xxR2dHe3s7CHqiwlRImeVBKBqNAQBz9S4G2kMIFRUMANbtxbb3th09etTv9xuGLtohJEw3/IAQEgwF33tv25dffpXRm+yRhL2JV5kFIESsG50dO3a+9PL/JpT6fD42/XF4MwKApmltbe1t7e33zPsRV9Ulq/wS6N1i8eZLtLvlMvP+zogoCB5NVVUAKC0p8fl8XV1dDqeTJ84im4ZhtVfcreaSotaNMVguAn+YfTGkx8+cAuuJqqqj27ZvD4VCprDYyDPlBzycEKIoitebU1m55ue/+FmO10uTLUqPJDyk5GDqdDophRUrVx46dDgYDGKM2Q2EOBisq5CmKvX19fk+332L7y0uLqJXxKlKoU+ZsU5NHCfc4J5IaZ0ke5Dp6nSZMiuX0osIIQqUkrjJTLNAGTBNkxCTZLJJ3UEIwRg3N7esWbs+O9ub0oXAqpNWNoibc9PjcUei0ZUrM6zM9QCLRK17XgCgFAilTperpubCs8/95bPPvigsLAQA0zTFEcs6iFhOfU1NzYjhw5c++URxcRGxlk+7y9QmerdYVPAkxEBIFlzP8GiEEEVRjh8/0dgYzvflJ91hAVBKFUXVNBUAQHhIRgU7gRByu93rN2xkr5nj2SP2P704FBBG0VjU485asuQBt9tNezMh1DKNq1dXRqMRv9+v67p4STxbhAzDUBQlJUGEkK7rPp/vxIkTb731tzvvvKPXHC1SZQpAVYyxorzx5puEkFAwENP1FKEgy6nSNK2zs6ujo33mzJkTJ94CV3z6E+ldWCJ8fLAZre+eIG8IRVHa29vffvtvLpebGSlRuKZpulxOj8cDEJcIPyUeKIrS0tpKKWULnjwDJvbkDAEowgrq6uqKZcUo6X0YsE5CCG3Z8taJr08WFISYqngnsWIoihKNRDDGpmFoDo05nTxXhJBhGKFQaOcHH5SWll57bXlf+hglj6X4MUKmaTocDkVRdGv9jA8oHt+haeGmJpfL9eMlD1599dX025j+RPoqLLHCqqq2trU2NoYjkUha0TP0HGWrdpQijGtqLrz//vutbW1er9cwDNaUXDGxWGzQwAFerxcAME5aqRdsExBCXC5XRhuQolQeiBDyZGVDH8wGM1eHDh3ZtevvoYIQXwvlt4EIIVVVw42NQ4YMmT171gsvvBDtijpdTsOansQy5+Tmrlu/vqioMBDw90VbXE9i+Rls+qOZjB9CqK6ubvDgwQsWzM/Ly/u2pj+RvgoLhOkvLy9v376Pd+/ek6noSJiQ2FkitoWhG06X0+v1mqaJEfCeZt0ZjcbKysrE1FievK0RT5dSkjxquTrBupvj8mJ3Z6ZpvZOne1jfNzaGN2zYmJefB8k9zRLEGHd2drpcrrlz5/h8vrvuuuu111YEnK4U0SCETNN0u1yt0ejq1ZVPPvlTLs2MWfOrUg7SxwkIpWIxm5qax40bN3fuHBCeScO3ykWbSlZJVVWcTqfD4XA6nQ6nw+FwOOIf4/8cDs3p1BwONR4nHsWZk5vjcrlY5akwLhVFiUQiubk51113rZAbteY3yj/Hf6IEvGDprclCEOJy76m5mWhM01y5chWlxOVymUlGiFkLTCltbW2dP/8en89nGMY115RPmTKpvqFeVVVKKbdqLE3TMPLy80+dPr1x0xsAYO2G7QlRQ+JxSu2sU6itrW1Bxfy5c+ewOxWMcboQrzy9zvpJPcfDFUVRVVVVVUVRVIX95GCMMfvFPrNoDHaPJmZBKQUKiqI0NzWPHTMmKysrJQISjBAIhjMlkZQ+4I1rdTZLp9vm5im88cabZ8+ezc3LY66VoBUAAFVV6uvrp0+bOmzY1aZpMi/z9tunXz30qsbGRlVN2oOKMaYAuq6HQqE9e/YeOHAAYyWldimIZeY1oml2TvhIHQ7H7j17Tp06LUoqfYxdYXqf8tM7kqYte4rRxJgpIdxK80BWf82htbS0FBcXsXuZ9KGJEN+CgMRwfowsu5KSO6Rasm6bm431/QcO7N37z1CoyDAMnJadw+FoaGgYPmzY1Km3UUrFjly4sMLj8XR2drLBA6KVpRQA8vLyNm58s7a2jkfICM9RPBBrlxqBUpfLVVNTs3z5i/v3H2CRe0j/inERFou3VHqg+DGla3mjgDWN8mP2UdO0jo4O0zAWLVqgqipJ28rYnVy41BgYYzGEZ6EoSYEZYYsg52vOb9i4yecPEGpQSgml4khQVbW9vT3H6120aAEvA/tJCMnOzl5QMb+joz1lhYldbpqm0+nECl6xchXbb5Neo3TEMnMHjqYAYJpmbm6uN8e7unLNhg0b2dNAdpf6LdK7887Kj7q5HxEVIzYoTRYch5+llGKMNU1rbW2LRSNLljxYWFjIl/h4ZN64YiAAdHR0GIaJMOKPAQD4cgNKmfIwViKRLsPIvEDKSmLo+uuvV6qKpmmKYcTvvyB+n0AxRrqud3R2PvbIT9J3MrGbg6uuKptxx+2bt2wtLi7mD1t4CxiGkZuXW1dbt379xoULKzI2Zjq8wO3t7R6Ph7mASREAsLWcVlBQsG/f/vPnau5dvMjny/92vfjehcXI2BBiCNeWKDV+bUoKWFEwQrquNzY2+PLzf/KflvTr1y/9bjxdByxZPaZPmTI5GAjoug7xDTrdwvbVmMRUFdXpdEAmuQPAuvUb6+sagqGQrsesEQLUerM5xmpt7fk5s2cNGjQw46oBGw8TJ9566tSpqqPH2HZ43iYsQT2mBwLBj/cfGDiwdNy4cdxFE0mpMkLIMExVVctHjDh06LDb43G5XIaRWK1FVjQmo4KCUG1d3bJlz95zz7zy8hHQTcddAfoqrBQSFUvWFkDcXohjJUVzxDS7Ojp0Xdc0bfzN46dOndLdbkaetGiuCCG6HhsxfFgoFIJLQjTALN/du/fs37+/sKhI12NIiMNy1jStvr5+1A9+cOutt1DheWVGKiru+fOfn21ra8/OzhL3AwIAQkAI8fv9b27eWlzcb8CA0oy1ZvDxCQBdXZ1Tpky+5pryVa+v1vVYbm5uyuNnHjOmx/Ly87q6ul597a9TJk26/Y7pSFjavZL0LiyxaSillFJVVbq6InpMZxMPbwIkWKmMUEoVRfG43cVFRWVlQ0aOHBkMBqD7Jw/s62fEWpSyAgEhFIlEQXhk1kewtbmb6cY0iaLgM2fObtmy1R8IpLt3CCFFUVtbWwN+//z587pJNRGZEOJyuRcuXPj888tdLmeKL0UpUGpqmupyuVZXrvn5z5a6XE7BrscTQdbUz44xRpTQSKSrvHzEz5Y+sWrV6tq6ukAwSEyTEgJpBdZ13elyBhyBHTt3XqitnT9/nt27kDPSu7BSUFW1paVlwoQfDrt6WDQaQQgLDg1KcW7Swx0OLT8/Pzc3l31kFe5h1JLkpU4AICQxuSCE+theKTMCS1BRcFdXZOWq1x0up6qqzH3hiUN8JjJ0XV+4cAH79kTP2TEfqLS0ZNasmRs3bSosLBT3RPAEs7Oz6+rq1q5dd//9i/m1CU8xzZdACNh+xoKCgieeeHzDhk37DxwIBAKqohiZhpahGxjjUEHB0WPHli17rqJiPpvBxarZTV+FxTuGNU0oGBo4sLS3i3qCWBuMeojDv2KaGk4p8076qCrIlAgLqaxc09zcEgwG+ANBFL91BYQoxkpd3YWK+ff0798vo0uUjqIolNLx48edOXP64CefhkIh5mxxoSCE9FgsGAweOnx4x84PJk+ayO7jIG7SkhYUhGJTAGAPDRcurCgtLdm8Zavb7fZ6vSnTolV+qut6MBhsa2t78cWXZs+ePW7cGLiCj6XjwhJndE5GF4dSZm9jAMBb5BLoy4UokyAwxk6Xa+tbbzscWuKhcvJ4j/tJiTPWlwcFk6ooSldX17nz532+fLZqRa1eQQhRSjTNWVtbO+amm2666UYu5b4zb97dZ8+da21t8Xpz2NbhhBFCyDTNYDD47rvvDSgtHTJkMLCh2/36LR/VLIXx428uKipaXVnZ0FDv9wf4rsmUfozFYh6Px+FwbNi48fTpU3ffPVfTtCujLRUA+Fjsm1AoAKC4s2Lv7umUgc4DFUU5c+YMd4mSdZ+IzHsxLifu7rAQCoqC2dc6EEKWChGllBLi0LTm5uaioqK7754DFwlCiBCiqtqihRV/eX55LBZj3clPIWthzOPxrK5cu/TJx3NycuKvqEiaAeNVpmkeGCFk8OBBP//Z0jVr1n7xxdFAMKAoimEYOG2FjK9E7D9w8HzNhfsWLwoEAldAW5iNxa6uroaGBkVReMXE4iHLlbEMdQ9D6zLD313D24vZea/Xm5eXl2uRk5PDj3l4/CAnJzc3l0fNy8uzQnL4l4WoBQAgAKwokWgUKLlv8SJV1dKd+l7BGBNCiov73T13bjgcTgjdWq9HCOm67vFkdXR0VFauBQAAxMvASBwn6p6UflZW1pIlD9122+SmcDgai/KX3vAUkPVlT7aHJxwOL3v2L4cOHWG9SexcoFcRQitWrDh79iwAqKr68MMP5+fngzW3pHSnFXKlZJUMFdaEuKPNT4kfQSh5d6T3QTwQACHU1NR076JFweClD25mnEaPHnXq1Km9e/cVFBbEHz4CgJW7rus+n//o0WP/+MeHfr9f3C4WH+Hd1wJbr+i5/fbpJSWl69evb+5qzs/PT//GDjs2DCMnJzcSiaxcufLs2VvvvHMGT6GbHL4R+Lnnnnv//fdbW1uzs7MJIU8//TQfxGI8/jHuslwxkhtWEHdmVSUMT3KzcrjBwMK3oPi1AKBqWn1d3S0TJowaNZL2tmrVAywXALjrrjklJf2bmppUVTWtp6tWBDBN3R/w7/r7Pz7/oirbm51y70ZZjRJpJmXBrJFpmuXlw5cufbKwoKCurg5jjK03T6V0omkaDocWCIV2frDrpZdebmtrwxf9dY++go8dO/bb3/62vb39yJEjgUBg6NChGzZsgEy2yvqYmJ6uACilLdPCU8op9go74KJhpLejmIWmaeFweNCgQXPmzOLJwqWCrMXJxYvvVRUlEokqStJtOIqveiiKonz++ecuV/yLjYm6AABN7K1ILwwbIaZp5ufnPf74o2PHjKmrqzMMQ9MS+yyoMNIIIdQ0CwoKT3x98s9/XlZdfZyrEC4ruLS01OFwnDp16vjx40OHDi0p6X/8+HHovkGpYJ8v0vG4aGjPxegG3kyi5tIjpAcqihKJRByatnBhBVymHXOs132+/HnzftTS3AyZ5mumIbYZnxcsEQ0hBIkmhzQQQmyNQ1GUu+++a0HF/I6Ojvb2TofDmVJ2ljKh1DB0v99vmOSll17+8MPdrJo97+e5WNTq6uoTJ05UVFQoinLw4MGGhoZbbmF7VzBWFFXVxC3CbHyoqoqw5ZF8s3bvEYSxgrGCrFdc8DKkND2XCDdO6cfigXjKygphhAghLS0tDz5wf/pb4L4JbJ/MtddeM3HSrTt3flBcXMwf9aS0XkpF4gcICfGhO5C1fHXDDaMLCwsrK9fU1l4IBoOUJl6rwSJwzz0nJ8fj8WzevPXs2XPz5t3NNiperg5Vp0yZ8swzzzz66KMlJSVvvPHGkCFDpsZfGmGGw+FoNMaEBVa1VVUNh8PRaLSXhL8xpmk0hcNswSxdDUn1p5SysZw89/GTiLnMaYID/tyAUoxxc0vLrJkzy8tHXEZVMVimM++cce7cuS++qPJ6vYQQsVKiknhrM0NiGEYkEmEuec8dz+ITQvr377d06RPr1m04+MknTqcTBG1BWjM6Xc4Pdu06evTovfcuKisb0l3iFwuilH7yySdbtmxpamqaNGnSrFmzWBkaGxv//vd/aA5nfOWQd4CC29s7Ro8eNXjQwMsocBGWbH19/e7dex0OBwDwV9YkzAxvqPgVggFLSw4QAu4ZJh3Hd0YghGLRqNvjmTp1Ckq2apelgtTSdEtL644dOx0OB8KYUgK8ZYVs+IAAQGwJQo/pEyfekp+f38fy8IGxZ88/a2trXS4XJYQKqo2PQIg7G2zRTlWV6dOnZWVl9TGXnkHC84TL3JqSFL5hw17U5VzKvUVM4jKaakQp5Svvqfe6ye5t0mUXWeJLo4cC2ITd9brkGl1CwS42r0vIogfQxWYvkfSFy2P3JJIUpLAktiCFJbGFvm70k3xHoJTyO77L625fXqTz/j2ALTSwNVW+35D0YQvut4gU1vcDviTU3t7e3NyMMS4uLgZh5emiVrlECCGEEOVS3o3YE99RvUtEWMcfPXr0scceGzdu7MiRI2+++eY77rh927ZtbN/LJauKUhp/+Isus4m5zMlJLjvMVm3fvv2ee+5pampyOp0jRow4ceJ4S0trTk7OunXrpk2bxr62j4TvLFHr/QDcnvH9QjyQRWhtbdu6dUtubu7MmTNF+5cePyVZvhuCZU2sN3HG41PJdxjWW52dnaNHjwaAm2668fDhw7quf/bZkWHDrgaA8hEjiPBqFpLpZS1m2sutTdNkgY2NjZMmTQKAP/3pT2IifUlBjM++zcExDEPeFX6nYZPgZ599durUKQCYNGnStddeCwDl5df85je/ffXVV6+6qiwajZw/X9Pa2pqXlzdwYHxnQDgcPnv2rMPhKCsrU1W1o6Pjk08+qamp8eXnj/zBD/x+PyGkvr7+8OFDx44dAwBKyblz57Kzs3Jz89isun///pMnT+bk5Fx77bVFRUUk/kq6xtOnz+Tm5gwePPjgwYPV1V8NGTJk9OgbFEVpaWnZvXs3IebNN4/3+XzSYn2nYZbgyJEjXq/X58srKxu8bt3a9vaOlGiLFy/GGA8bNqy+vp6FPPLIIwAwefJkSuk///nPkSNHcrEOGjRox44dlNI77rgDAPr3Kx44oMTn8wHAa6+9RiltbGxcsGABj19YWPj666+zZJctWwYAY8aMefTRR9kmVYdDe+qpX3388UcjRoxg8cvLyz/44AMprO86bFZiQnG5HE6nNmzY1RUVFc8+++zXX59kcd59912Hw4EQrFq1ilJ67ty5q666CgBefPFFQsj1118PADNnznz33Xdnz54NAKNGjaKULl++fP78+SUl/XK8WdOnTXvkkZ/s3buHUnr//fcDwNixY9evX7906VIAcDodhw4dopT++7//EQCysjxlZWXr1q2dM2eW06l5vR6Px/3rXz/93HPPFRaGEEIjRgyTwvquw4QViUSeeeaZa665JivLw21JMBhcsWIFpdQw9LFjxwDAQw89SCndunULszQ1NTVnzpwJhUJeb9bs2bNPnjzZ3Nx85MiRL774IhKJUEqbmsLs67Ivv/wyy+7w4cN5ubkA8O5771BKdT06evQPAOBf/uV3lNL/+I8/AYDPl3/gwAFK6ZkzZ/oVFwHAAw88wC5fuvQJjFFxUYFcbvh+4HQ6f/GLX3z66adbt761bNmymTNn5ufndnV1PPzjH1dVVSmKWlFRAQD79n3U2tq6fftOAJg8eVJhYWH//v2nT5/e1taxefPmgQMHTps29e2//a20tJT97b66ujr2pxhaW1pYRidPnmxuaelXXPjkE0+UlZWNGFFeXX0cAA4ePAgAGGEA8Pv9bOoMBoN5ebkAwOfBkpISQqimaVJY32kopQihbdu2PfbYY08//XQ4HJ44ceKTTz65ZcuWioqFlFKHQ9u3bx8A3H777T5ffvVXX+3du2f//n0AcNddc1kif/3rX1esWDFr1qyCgtBHH33866eeGj1qVENDAwBgrLDVJr7mxDadU0p9Pt+AAQMKCwunTZt6550zRo0aDQBYwQBgGIZh6CwyW3TgW9VjMZ2lJu8Kv9Owu8IjR44sX74cAK677rpFixaxU8XFxbFoDCvK4MGDAWDYsOGTJ09ev37D//wf//1Y1dGSkn7Tpk0DgLa2tpMnT44ZM2bx4sWGYfy3f/uvL774QnV19ZatWx968EG+cMX/kFswGFQUtb6+ftMbb9500xgA+Pzzz5qamktLSyFt8yC2vpvJl2fZA0yc9sf+JN8tWIfNmDHD7/e73a5//df/snz58rfeeutXv/rlM8/8L90wb755/IQJE9hi5vz5FRijr776sq6hcfbsu9i7ompqaqZOnTp06NCnn366sbHRk5VV39CAFTxk8GAAUFXNNImq4o8++qiqqqqtre36668fOvQq3SDL/rzs66+/rqys/OEPJ0yYMGHPnj28VBhjSHrxSmqZKSXSef+uw1YcVq1a5ff7k/sPZsyYcf78eWotV3Z2dl533TV5eTkOh7Z9+3ZKaTQapZT+8Y9/FC90u91sOZRdNWfOHH5q3bp1lNJNmzYxF4qzZMkSVow//OEPAODz+aqqqiilzc3NgYAPAJ566ilW2t/85j8DgKpd7idEEjtgE9bx48d37dr11VdfGYbRv3//0aNvGDduLPvSIrb+5sVDDy159dX/M2bMmPfff5+9M4HNdB9//PGOHTvOnz8/cODAadOmlZeX82Tr6upeeeWVurq6wsLC++67r6ioCACqqqreeeed06dPe73esWPHzpgxg5Wkurr64MGDXq/3lltuycrKMgxjx44d4XB45MiRw4YNA4CjR49+/vnnbrdTCuv7QXevfRNV1dzcfOONN1ZXV//ud7/7/e9/bxgG+1taNO0RtfhMMOUUpZRk+kOstLev/aREkM779wNmmbgOWC9ijPnjZEVRXnnllerqakVRfvSjH4GwVQshxF7WiqwXunLd8IfH2HrzDEKI54Wt1zpwJ51NoCwOS4HNp2JJWNmksL43cKGkwNU2ZMiQX/7yl2VlZewBjhif6yDdFPFo4ilRlGJkhBCzgpyUBBMXyqnwew2fgMRJLX2Cu/JIYf2/A5uVxHnqW0QKS2ILcoFUYgtSWBJbkMKS2IIUlsQWpLAktiCFJbEFKSyJLUhhSWxBCktiC1JYEluQwpLYghSWxBaksCS2IIUlsQUpLIktSGFJbEEKS2ILUlgSW5DCktiCFJbEFqSwJLYghSWxBSksiS1IYUlsQQpLYgtSWBJbkMKS2IIUlsQWpLAktiCFJbEFKSyJLUhhSWxBCktiC1JYEluQwpLYghSWxBaksCS2IIUlsQUpLIktSGFJbEEKS2ILUlgSW5DCktiCFJbEFqSwJLYghSWxBSksiS1IYUlsQQpLYgtSWBJbkMKS2IIUlsQWpLAktiCFJbEFKSyJLUhhSWzh/wKszg/dTzlufQAAACV0RVh0ZGF0ZTpjcmVhdGUAMjAxOC0wMy0wMVQwNDo1NTo0NyswMDowMNguUxMAAAAldEVYdGRhdGU6bW9kaWZ5ADIwMTgtMDMtMDFUMDQ6NTU6NDcrMDA6MDCpc+uvAAAAAElFTkSuQmCC;" parent="1" vertex="1">
          <mxGeometry x="397.25" y="87.5" width="72.5" height="72.5" as="geometry" />
        </mxCell>
        <mxCell id="ujX-c3RJfpw3Tra9EMkt-75" value="Rviz" style="html=1;whiteSpace=wrap;aspect=fixed;shape=isoRectangle;strokeWidth=1;fillColor=none;" parent="1" vertex="1">
          <mxGeometry x="708.5" y="349.5" width="85" height="51" as="geometry" />
        </mxCell>
        <mxCell id="ujX-c3RJfpw3Tra9EMkt-80" style="edgeStyle=orthogonalEdgeStyle;rounded=0;orthogonalLoop=1;jettySize=auto;html=1;entryX=0;entryY=0.75;entryDx=0;entryDy=0;" parent="1" source="235556782a83e6d0-7" target="b94bc138ca980ef-1" edge="1">
          <mxGeometry relative="1" as="geometry" />
        </mxCell>
        <mxCell id="ujX-c3RJfpw3Tra9EMkt-81" value="&amp;nbsp;LINE&amp;nbsp;" style="edgeLabel;html=1;align=center;verticalAlign=middle;resizable=0;points=[];" parent="ujX-c3RJfpw3Tra9EMkt-80" vertex="1" connectable="0">
          <mxGeometry x="-0.1689" y="2" relative="1" as="geometry">
            <mxPoint as="offset" />
          </mxGeometry>
        </mxCell>
      </root>
    </mxGraphModel>
  </diagram>
</mxfile>
